<?xml version="1.0" encoding="UTF-8" standalone="no"?>
<!-- Created with Inkscape (http://www.inkscape.org/) -->

<svg
   xmlns:dc="http://purl.org/dc/elements/1.1/"
   xmlns:cc="http://creativecommons.org/ns#"
   xmlns:rdf="http://www.w3.org/1999/02/22-rdf-syntax-ns#"
   xmlns:svg="http://www.w3.org/2000/svg"
   xmlns="http://www.w3.org/2000/svg"
   xmlns:sodipodi="http://sodipodi.sourceforge.net/DTD/sodipodi-0.dtd"
   xmlns:inkscape="http://www.inkscape.org/namespaces/inkscape"
   width="210mm"
   height="297mm"
   viewBox="0 0 210 297"
   version="1.1"
   id="svg7346"
   inkscape:version="0.92.4 (5da689c313, 2019-01-14)"
   sodipodi:docname="owl-head-upper.svg">
  <defs
     id="defs7340" />
  <sodipodi:namedview
     id="base"
     pagecolor="#ffffff"
     bordercolor="#666666"
     borderopacity="1.0"
     inkscape:pageopacity="0.0"
     inkscape:pageshadow="2"
     inkscape:zoom="1.4"
     inkscape:cx="657.03766"
     inkscape:cy="564.71079"
     inkscape:document-units="mm"
     inkscape:current-layer="layer1"
     showgrid="false"
     inkscape:window-width="2560"
     inkscape:window-height="1346"
     inkscape:window-x="-11"
     inkscape:window-y="-11"
     inkscape:window-maximized="1" />
  <metadata
     id="metadata7343">
    <rdf:RDF>
      <cc:Work
         rdf:about="">
        <dc:format>image/svg+xml</dc:format>
        <dc:type
           rdf:resource="http://purl.org/dc/dcmitype/StillImage" />
        <dc:title></dc:title>
      </cc:Work>
    </rdf:RDF>
  </metadata>
  <g
     inkscape:label="Layer 1"
     inkscape:groupmode="layer"
     id="layer1">
    <path
       inkscape:connector-curvature="0"
       id="path4748"
       style="fill:#e2dce0;fill-opacity:1;fill-rule:nonzero;stroke:none;stroke-width:2.79055357"
       d="m 54.960783,36.720877 c -3.158221,0 -6.24966,-1.57 -8.072254,-4.4413 C 44.044756,27.799094 45.33864,21.843768 49.785189,18.978042 66.756127,8.0552923 86.334315,2.2790825 106.39671,2.2790825 c 4.15161,0 8.33381,0.2518595 12.43532,0.7472054 5.25907,0.6212883 9.0072,5.4096032 8.38391,10.6876811 -0.62331,5.283663 -5.3676,9.056121 -10.6378,8.423639 -3.35299,-0.394593 -6.78391,-0.604495 -10.18143,-0.604495 -16.386588,0 -32.405887,4.729565 -46.279817,13.665342 -1.599969,1.024277 -3.383608,1.522422 -5.15611,1.522422" />
    <path
       inkscape:connector-curvature="0"
       id="path4924"
       style="fill:#916a4f;fill-opacity:1;fill-rule:nonzero;stroke:none;stroke-width:2.79055357"
       d="m 142.22208,17.121209 c -13.57897,0 -26.16178,5.921743 -36.46843,15.982525 C 95.441432,23.042952 82.858623,17.121209 69.282417,17.121209 c -35.007577,0 -63.3815279,39.210554 -63.3815279,87.577971 0,48.36462 28.3739509,87.57794 63.3815279,87.57794 13.576206,0 26.159015,-5.92734 36.471233,-15.97975 10.30665,10.05241 22.88946,15.97975 36.46843,15.97975 34.99925,0 63.3704,-39.21332 63.3704,-87.57794 0,-48.367417 -28.37115,-87.577971 -63.3704,-87.577971" />
    <path
       inkscape:connector-curvature="0"
       id="path4972"
       style="fill:#d2c8cf;fill-opacity:1;fill-rule:nonzero;stroke:none;stroke-width:2.79055357"
       d="m 138.97483,35.924132 c -12.37135,0 -23.82721,5.401208 -33.22118,14.555306 C 96.348533,41.32534 84.898227,35.924132 72.521351,35.924132 c -31.882784,0 -57.724547,35.723563 -57.724547,79.772798 0,44.06325 25.841763,79.78959 57.724547,79.78959 12.376876,0 23.827182,-5.39561 33.232299,-14.55528 9.39397,9.15967 20.84983,14.55528 33.22118,14.55528 31.8883,0 57.72453,-35.72634 57.72453,-79.78959 0,-44.049235 -25.83623,-79.772798 -57.72453,-79.772798" />
    <path
       inkscape:connector-curvature="0"
       id="path4980"
       style="fill:#e2dce0;fill-opacity:1;fill-rule:nonzero;stroke:none;stroke-width:2.79055357"
       d="m 132.68009,51.055085 c -10.03396,0 -19.31388,4.371357 -26.92699,11.79591 -7.618691,-7.424553 -16.901367,-11.79591 -26.929763,-11.79591 -25.827892,0 -46.780685,28.951035 -46.780685,64.643815 0,35.71235 20.952793,64.64938 46.780685,64.64938 10.028396,0 19.311072,26.1357 26.929763,18.71116 7.61311,7.42454 16.89303,-18.71116 26.92699,-18.71116 25.8362,0 46.77508,-28.93703 46.77508,-64.64938 0,-35.69278 -20.93888,-64.643815 -46.77508,-64.643815" />
    <path
       inkscape:connector-curvature="0"
       id="path5060"
       style="fill:#b19780;fill-opacity:1;fill-rule:nonzero;stroke:none;stroke-width:2.79055357"
       d="m 153.92978,87.029095 c -11.50317,0 -20.83592,9.37238 -20.83592,20.935985 v 20.36509 h 17.93926 c 11.50039,0 20.81924,-9.37516 20.81924,-20.94158 V 87.029095 Z" />
    <path
       inkscape:connector-curvature="0"
       id="path5080"
       style="fill:#171015;fill-opacity:1;fill-rule:nonzero;stroke:none;stroke-width:2.79055357"
       d="m 161.29917,110.34133 c -2.22607,6.46186 -9.85868,9.67181 -17.05164,7.16711 -7.18462,-2.50471 -11.20542,-9.77255 -8.98771,-16.23438 2.22883,-6.456297 9.85589,-9.669012 17.05161,-7.164348 7.18181,2.507514 11.21101,9.766968 8.98774,16.231618" />
    <path
       inkscape:connector-curvature="0"
       id="path5084"
       style="fill:#0c090b;fill-opacity:1;fill-rule:nonzero;stroke:none;stroke-width:2.79055357"
       d="m 148.38913,118.87635 c -1.57495,0 -3.16382,-0.25745 -4.73041,-0.80036 -3.29456,-1.15301 -6.01315,-3.40866 -7.63538,-6.34154 -1.66399,-3.01123 -2.00069,-6.3779 -0.9266,-9.48429 0.20307,-0.6017 0.46471,-1.19777 0.78191,-1.76869 0.55093,-0.990659 1.79754,-1.351704 2.78814,-0.803182 0.99059,0.554102 1.35233,1.807872 0.7986,2.812562 -0.19753,0.35543 -0.36173,0.73041 -0.48976,1.10261 -0.6845,1.98699 -0.46189,4.16426 0.63167,6.13722 1.13528,2.04855 3.05526,3.62134 5.40931,4.44135 2.38188,0.83114 4.90291,0.77516 7.08166,-0.17079 1.02956,-0.45897 2.23721,0.0251 2.69354,1.0746 0.4508,1.04667 -0.0335,2.25562 -1.07407,2.70903 -1.67787,0.7332 -3.481,1.09144 -5.32861,1.09144" />
    <path
       inkscape:connector-curvature="0"
       id="path5088"
       style="fill:#cbc3c0;fill-opacity:1;fill-rule:nonzero;stroke:none;stroke-width:2.79055357"
       d="m 146.42714,101.25138 c -0.48976,1.42727 -2.17323,2.14366 -3.75927,1.58395 -1.58331,-0.5485 -2.47095,-2.14929 -1.9812,-3.573755 0.49252,-1.427249 2.17596,-2.138061 3.75646,-1.581145 1.58885,0.548472 2.47372,2.154862 1.98401,3.57095" />
    <path
       inkscape:connector-curvature="0"
       id="path5098"
       style="opacity:0.5;fill:#4f4f4f;fill-opacity:1;fill-rule:nonzero;stroke:none;stroke-width:2.79055357"
       d="m 89.964489,21.917634 c -6.472284,-3.097995 -13.437086,-4.796711 -20.68292,-4.796711 -32.041348,0 -58.495283,32.852237 -62.7609919,75.491005 -2.1787535,7.813572 -3.3530157,16.018952 -3.3530157,24.470562 0,17.91356 5.231249,34.66852 14.2969016,49.02507 9.087877,17.79881 22.825453,30.70293 38.789108,35.31218 14.67528,7.60926 31.540496,11.94701 49.499229,11.94701 V 20.787032 c -5.37316,0 -10.643353,0.388993 -15.788311,1.130602" />
    <path
       inkscape:connector-curvature="0"
       id="path4996"
       style="fill:#d9d0d4;fill-opacity:1;fill-rule:nonzero;stroke:none;stroke-width:2.79055357"
       d="m 106.60376,53.956239 c -0.6233,0.688458 -1.22714,1.410474 -1.83095,2.126918 V 193.76641 c 0.60381,0.72205 1.20765,1.44684 1.83095,2.12412 14.26905,-15.58517 23.62406,-41.55013 23.62406,-70.97133 0,-29.40719 -9.35501,-55.372182 -23.62406,-70.962961" />
    <path
       inkscape:connector-curvature="0"
       id="path5060-3-6"
       style="fill:#b19780;fill-opacity:1;fill-rule:nonzero;stroke:none;stroke-width:2.79055357"
       d="m 56.182432,85.971473 c 11.503174,0 20.835926,9.372371 20.835926,20.935987 v 20.36508 H 59.079076 c -11.500368,0 -20.819231,-9.37515 -20.819231,-20.94156 V 85.971473 Z" />
    <path
       inkscape:connector-curvature="0"
       id="path5080-0-4"
       style="fill:#171015;fill-opacity:1;fill-rule:nonzero;stroke:none;stroke-width:2.79055357"
       d="m 48.81303,109.2837 c 2.226082,6.46186 9.858698,9.67183 17.051649,7.16713 7.18462,-2.50473 11.205421,-9.77254 8.987715,-16.23442 C 72.623549,93.760139 64.996502,90.547417 57.800788,93.052089 50.61896,95.55961 46.589765,102.81907 48.81303,109.2837" />
    <path
       inkscape:connector-curvature="0"
       id="path5084-6-9"
       style="fill:#0c090b;fill-opacity:1;fill-rule:nonzero;stroke:none;stroke-width:2.79055357"
       d="m 61.723088,117.81874 c 1.574945,0 3.163819,-0.25746 4.730389,-0.80039 3.294579,-1.153 6.013164,-3.40865 7.635393,-6.34152 1.663975,-3.01123 2.000681,-6.3779 0.926586,-9.48429 -0.203053,-0.6017 -0.464689,-1.197777 -0.781911,-1.768683 -0.550926,-0.990698 -1.797526,-1.351707 -2.788117,-0.803191 -0.990605,0.554104 -1.352335,1.807874 -0.798602,2.812534 0.197527,0.35543 0.361729,0.73043 0.489741,1.10266 0.684521,1.98697 0.461896,4.16423 -0.631653,6.1372 -1.13528,2.04856 -3.055263,3.62132 -5.409327,4.44134 -2.381879,0.83115 -4.902907,0.77518 -7.081661,-0.17079 -1.029544,-0.45896 -2.23719,0.0251 -2.693518,1.07464 -0.450803,1.04664 0.03347,2.2556 1.074066,2.70897 1.677874,0.73324 3.480998,1.09147 5.328614,1.09147" />
    <path
       inkscape:connector-curvature="0"
       id="path5088-9-2"
       style="fill:#cbc3c0;fill-opacity:1;fill-rule:nonzero;stroke:none;stroke-width:2.79055357"
       d="m 63.685078,100.19374 c 0.489756,1.42728 2.173214,2.14368 3.759268,1.58396 1.583305,-0.5485 2.470937,-2.149283 1.981196,-3.573755 -0.492518,-1.427228 -2.175962,-2.138054 -3.756475,-1.581167 -1.588831,0.548501 -2.473701,2.154884 -1.983989,3.570962" />
    <path
       inkscape:connector-curvature="0"
       id="path5008-6"
       style="fill:#816a5b;fill-opacity:1;fill-rule:nonzero;stroke:none;stroke-width:2.79055357"
       d="m 104.77281,149.46361 c -4.10429,0 -8.072253,-1.03544 -11.851004,-2.93846 0.742958,19.85854 5.097703,37.84203 11.851004,51.64171 6.75052,-13.79968 11.0997,-31.78317 11.83709,-51.64171 -3.77039,1.90302 -7.74115,2.93846 -11.83709,2.93846" />
    <path
       style="stroke-width:0.35714287;fill:#0000a1;fill-opacity:1"
       d="m 555.66071,448.95814 c -13.69586,-1.96471 -23.3624,-6.40728 -32.01752,-14.71467 -8.83175,-8.47693 -13.79576,-18.38172 -15.0101,-29.94997 -0.47131,-4.4899 -0.11296,-9.19122 1.18737,-15.5775 1.77345,-8.70991 5.60412,-15.89921 11.74198,-22.03708 6.39254,-6.39254 14.62329,-10.77461 24.27684,-12.92507 3.29265,-0.73348 4.66471,-0.8338 11.25,-0.82253 6.93678,0.0119 7.82184,0.0881 11.78572,1.01512 7.53244,1.76162 13.73754,4.40327 19.66189,8.37051 14.64084,9.80423 23.16706,24.90259 23.12987,40.95868 -0.0291,12.57872 -4.86998,23.2043 -14.52718,31.88694 -3.17616,2.85562 -7.15347,5.33678 -13.44315,8.38622 -6.13963,2.97668 -7.75173,3.5646 -12.58278,4.58884 -3.195,0.67737 -12.86976,1.19108 -15.45294,0.82051 z m -7.17964,-60.64887 c 6.16052,-3.01406 7.41234,-10.54068 2.62443,-15.77942 -2.42785,-2.65645 -4.91704,-3.811 -8.62042,-3.99838 -2.34793,-0.11879 -3.28355,-2.5e-4 -4.94532,0.62654 -6.67348,2.51715 -8.48302,10.64741 -3.58281,16.09762 3.71255,4.12925 9.73685,5.39584 14.52412,3.05364 z"
       id="path10768"
       inkscape:connector-curvature="0"
       transform="scale(0.26458333)" />
    <path
       style="fill:#00008c;fill-opacity:1;stroke-width:0.35714287"
       d="m 553.58928,448.59071 c -10.88776,-2.12664 -17.98926,-5.06875 -25.02205,-10.36648 -10.0027,-7.53493 -16.62143,-17.7294 -19.16773,-29.523 -0.86205,-3.99276 -0.83966,-12.66176 0.0454,-17.56845 1.08612,-6.02152 3.13718,-11.80908 5.6809,-16.03002 6.63003,-11.00163 18.34414,-18.85361 31.9851,-21.43964 4.57087,-0.86654 15.83012,-0.78448 20.40957,0.14876 10.89914,2.2211 20.74716,7.33078 28.47573,14.77472 4.57963,4.41098 7.64108,8.43028 10.2096,13.40393 3.40452,6.59245 4.81423,11.91233 5.13057,19.36144 0.32375,7.62353 -0.74277,13.32565 -3.64969,19.51296 -2.26194,4.8145 -4.53331,8.01823 -8.56166,12.07612 -4.07333,4.10321 -7.24619,6.30007 -14.10715,9.76769 -9.82635,4.96637 -12.74832,5.71078 -23.21428,5.91412 -4.02679,0.0782 -7.72322,0.0638 -8.21429,-0.0321 z m -5.1559,-60.22886 c 2.06939,-1.0569 4.26056,-3.31716 5.05551,-5.21494 1.42971,-3.41315 0.18397,-8.24971 -2.89582,-11.24292 -2.68164,-2.60626 -4.39642,-3.24181 -8.7895,-3.25767 -4.27566,-0.0154 -5.59813,0.47003 -7.90708,2.90262 -2.13142,2.24557 -2.61881,3.49813 -2.61747,6.72669 9.7e-4,2.27006 0.1655,3.167 0.80078,4.36507 1.64585,3.1039 4.24554,5.26536 7.68307,6.38794 2.36182,0.77129 6.47393,0.45506 8.67051,-0.66679 z"
       id="path11316"
       inkscape:connector-curvature="0"
       transform="scale(0.26458333)" />
    <path
       style="fill:#063b6a;fill-opacity:1;stroke-width:0.35714287"
       d="m 555.23528,448.79255 c -5.46498,-0.64191 -12.54797,-2.65692 -17.69567,-5.03416 -10.05051,-4.64138 -20.344,-14.87086 -24.7974,-24.6432 -3.14027,-6.89087 -4.32714,-12.98731 -4.02235,-20.66099 0.60047,-15.11742 6.26368,-26.95936 16.81849,-35.16789 5.40217,-4.2013 11.22041,-7.06045 18.31235,-8.9989 3.19762,-0.87402 4.17622,-0.96615 11.73324,-1.1046 9.4729,-0.17355 11.79626,0.12645 18.80629,2.42833 19.26707,6.32674 33.58927,22.01861 36.50468,39.99573 1.44099,8.8855 0.27914,18.08003 -3.22714,25.53866 -2.93003,6.23278 -9.07664,13.37819 -14.80665,17.21263 -2.86178,1.91507 -12.35935,6.80347 -15.45448,7.95442 -3.32628,1.2369 -7.75268,2.10456 -11.80529,2.31406 -2.18699,0.11306 -4.86028,0.26169 -5.94064,0.33028 -1.08036,0.0686 -3.0718,-0.005 -4.42543,-0.16437 z m -7.2642,-60.26506 c 4.88226,-2.15966 7.12355,-7.29055 5.39749,-12.35626 -0.77555,-2.27611 -3.89098,-5.61485 -6.14348,-6.58385 -2.29177,-0.98589 -5.8226,-1.32298 -8.35372,-0.79752 -5.16765,1.0728 -8.55146,6.24476 -7.47858,11.43058 0.81105,3.92029 4.43703,7.66464 8.54711,8.82615 2.17718,0.61526 6.02968,0.36626 8.03118,-0.5191 z"
       id="path11318"
       inkscape:connector-curvature="0"
       transform="scale(0.26458333)" />
    <path
       style="fill:#063b6a;fill-opacity:1;stroke-width:0.71428573"
       d="m 221.03766,443.57177 c -5.49931,-1.51006 -15.14689,-6.23259 -20.42116,-9.99624 -28.39415,-20.26164 -21.87879,-62.56647 12.15137,-78.89999 7.62058,-3.65766 12.83637,-4.99008 21.51329,-5.49574 9.61768,-0.56048 17.08824,0.94492 25.96196,5.23163 15.77287,7.61954 25.08026,23.09262 25.08026,41.69472 0,7.82112 -1.03329,12.12589 -4.79789,19.98846 -2.76817,5.7815 -4.15989,7.68482 -9.40413,12.86117 -6.99257,6.90206 -12.8996,10.62638 -21.15512,13.33808 -4.77676,1.56902 -7.29637,1.91632 -15.35715,2.11682 -7.02439,0.17472 -10.70963,-0.0531 -13.57143,-0.83891 z m 36.48452,-59.81558 c 3.4581,-2.33041 5.65834,-5.91998 5.65834,-9.23125 0,-12.2175 -17.79935,-14.25582 -22.47365,-2.5736 -1.48715,3.71675 -0.99137,6.88267 1.55096,9.90406 2.38146,2.8302 3.89093,3.42351 8.85277,3.47965 3.03128,0.0343 4.58588,-0.34852 6.41158,-1.57886 z"
       id="path11320"
       inkscape:connector-curvature="0"
       transform="scale(0.26458333)" />
  </g>
</svg>
