<?xml version="1.0" encoding="UTF-8" standalone="no"?>
<!-- Created with Inkscape (http://www.inkscape.org/) -->

<svg
   xmlns:dc="http://purl.org/dc/elements/1.1/"
   xmlns:cc="http://creativecommons.org/ns#"
   xmlns:rdf="http://www.w3.org/1999/02/22-rdf-syntax-ns#"
   xmlns:svg="http://www.w3.org/2000/svg"
   xmlns="http://www.w3.org/2000/svg"
   xmlns:sodipodi="http://sodipodi.sourceforge.net/DTD/sodipodi-0.dtd"
   xmlns:inkscape="http://www.inkscape.org/namespaces/inkscape"
   width="210mm"
   height="297mm"
   viewBox="0 0 210 297"
   version="1.1"
   id="svg10406"
   inkscape:version="0.92.4 (5da689c313, 2019-01-14)"
   sodipodi:docname="owl-body-bg.svg">
  <defs
     id="defs10400" />
  <sodipodi:namedview
     id="base"
     pagecolor="#ffffff"
     bordercolor="#666666"
     borderopacity="1.0"
     inkscape:pageopacity="0.0"
     inkscape:pageshadow="2"
     inkscape:zoom="0.35"
     inkscape:cx="400"
     inkscape:cy="562.85714"
     inkscape:document-units="mm"
     inkscape:current-layer="layer1"
     showgrid="false"
     inkscape:window-width="2560"
     inkscape:window-height="1346"
     inkscape:window-x="-11"
     inkscape:window-y="-11"
     inkscape:window-maximized="1" />
  <metadata
     id="metadata10403">
    <rdf:RDF>
      <cc:Work
         rdf:about="">
        <dc:format>image/svg+xml</dc:format>
        <dc:type
           rdf:resource="http://purl.org/dc/dcmitype/StillImage" />
        <dc:title></dc:title>
      </cc:Work>
    </rdf:RDF>
  </metadata>
  <g
     inkscape:label="Layer 1"
     inkscape:groupmode="layer"
     id="layer1">
    <path
       d="M 162.55605,247.49893 -25.79985,159.9568 -81.855723,195.26825 162.55605,308.86378 272.35573,169.00141 Z"
       style="opacity:0.5;fill:#594121;fill-opacity:1;fill-rule:nonzero;stroke:none;stroke-width:1.27904177"
       id="path8557-6"
       inkscape:connector-curvature="0" />
    <path
       d="m 34.550898,337.55458 c -3.441345,0 -6.942797,-0.34639 -10.38251,-1.08039 C 7.4832281,332.921 -1.3979773,321.65932 4.335966,311.31893 l 46.138059,-83.20864 c 5.733945,-10.34141 23.909052,-15.84084 40.599101,-12.28866 16.685154,3.55419 25.563114,14.81386 19.822634,25.15227 l -46.136431,83.21466 c -4.546194,8.20284 -16.946744,13.36602 -30.208431,13.36602"
       style="fill:#2d1b09;fill-opacity:1;fill-rule:nonzero;stroke:none;stroke-width:1.27904177"
       id="path8567-9"
       inkscape:connector-curvature="0" />
    <path
       d="m 50.198297,259.98536 c -1.286852,0 -2.599699,-0.13102 -3.894657,-0.40476 -6.255512,-1.33611 -9.579878,-5.55783 -7.435124,-9.43321 l 4.612822,-8.31462 c 2.151257,-3.87538 8.964074,-5.94147 15.219585,-4.60538 6.255512,1.32903 9.586367,5.55582 7.435108,9.43022 l -4.609569,8.31361 c -1.704433,3.08098 -6.354635,5.01414 -11.328165,5.01414"
       style="fill:#1e1106;fill-opacity:1;fill-rule:nonzero;stroke:none;stroke-width:1.27904177"
       id="path8571-4"
       inkscape:connector-curvature="0" />
    <path
       d="m 68.055429,268.87196 c -0.687303,0 -1.389211,-0.0685 -2.073263,-0.21548 -3.338971,-0.71183 -5.114883,-2.9601 -3.966166,-5.02822 l 13.032597,-23.50608 c 1.142242,-2.06805 4.77694,-3.16453 8.11429,-2.45472 3.340609,0.70984 5.116537,2.96321 3.971035,5.03129 l -13.039099,23.50303 c -0.908253,1.64017 -3.387723,2.67018 -6.039394,2.67018"
       style="fill:#63350f;fill-opacity:1;fill-rule:nonzero;stroke:none;stroke-width:1.27904177"
       id="path8587-8"
       inkscape:connector-curvature="0" />
    <path
       d="m 35.753589,268.79925 c -2.7703,0 -5.316378,-1.12464 -6.13365,-2.8564 L 5.6637547,214.96972 c -0.9878701,-2.0983 0.9570234,-4.29524 4.3496173,-4.9044 3.384473,-0.61217 6.928193,0.58904 7.917696,2.69134 l 23.962671,50.97612 c 0.986254,2.09829 -0.960258,4.29425 -4.35125,4.90541 -0.594667,0.10743 -1.199103,0.16093 -1.7889,0.16093"
       style="fill:#2d1b09;fill-opacity:1;fill-rule:nonzero;stroke:none;stroke-width:1.27904177"
       id="path8591-8"
       inkscape:connector-curvature="0" />
    <path
       d="m 23.776146,248.01317 c -1.512692,0 -3.028636,-0.3303 -4.242377,-0.99984 L -9.2172076,231.17849 c -2.6403164,-1.45487 -2.8742924,-3.95795 -0.5313253,-5.59507 2.3446011,-1.63215 6.3806294,-1.77913 9.01769423,-0.32826 L 28.023388,241.09707 c 2.63545,1.44884 2.872673,3.95388 0.52644,5.58603 -1.260842,0.88199 -3.015644,1.33007 -4.773682,1.33007"
       style="fill:#2d1b09;fill-opacity:1;fill-rule:nonzero;stroke:none;stroke-width:1.27904177"
       id="path8595-1"
       inkscape:connector-curvature="0" />
    <path
       d="m 90.583707,272.62706 c -2.027741,0 -4.019765,-0.59608 -5.26274,-1.70866 -2.001767,-1.79726 -1.272237,-4.262 1.624809,-5.50549 l 71.368054,-30.55707 c 2.9003,-1.24447 6.88271,-0.79239 8.8861,1.00686 2.00665,1.79722 1.27871,4.265 -1.62482,5.51051 l -71.368089,30.55405 c -1.104856,0.47325 -2.370586,0.6998 -3.623314,0.6998"
       style="fill:#874b15;fill-opacity:1;fill-rule:nonzero;stroke:none;stroke-width:1.27904177"
       id="path8603-9"
       inkscape:connector-curvature="0" />
    <path
       d="m 192.29851,255.93237 c -0.28921,0 -0.58655,-0.0152 -0.88226,-0.0383 l -51.91425,-4.4533 c -3.49336,-0.30109 -5.9338,-2.29969 -5.45124,-4.46745 0.48256,-2.16275 3.70128,-3.672 7.20605,-3.37998 l 51.91422,4.45329 c 3.48847,0.30711 5.93217,2.30068 5.44961,4.46944 -0.4436,1.97848 -3.18463,3.41627 -6.32213,3.41627"
       style="fill:#874b15;fill-opacity:1;fill-rule:nonzero;stroke:none;stroke-width:1.27904177"
       id="path8607-2"
       inkscape:connector-curvature="0" />
    <path
       d="m 139.30815,273.40676 c 0.5638,-0.17016 1.24946,-0.0231 1.52407,0.32419 0.2778,0.34837 0.0437,0.77427 -0.52156,0.94748 -0.5622,0.17208 -1.24787,0.0258 -1.52895,-0.32318 -0.27132,-0.35143 -0.0405,-0.77331 0.52644,-0.94849 m 35.91149,-7.56552 c 0.9879,-0.29701 2.18538,-0.0435 2.67119,0.56886 0.48095,0.61016 0.0747,1.35421 -0.91963,1.65426 -0.98301,0.29805 -2.18051,0.0462 -2.6647,-0.56483 -0.48419,-0.61622 -0.0731,-1.35524 0.91314,-1.65829 m 11.07795,14.00942 c -0.5638,0.17121 -1.24622,0.0257 -1.52407,-0.32122 -0.27619,-0.3504 -0.0456,-0.7783 0.52318,-0.94641 0.56383,-0.17405 1.24787,-0.0289 1.52409,0.32217 0.28111,0.35038 0.0473,0.77329 -0.5232,0.94546 m -41.21814,3.18466 c 3.36175,1.58077 6.8307,2.76884 10.27367,3.66295 0.31359,-0.45709 0.86603,-0.85585 1.64431,-1.09043 1.6914,-0.51753 3.74519,-0.0824 4.57548,0.96658 0.37853,0.48328 0.42407,1.00182 0.21609,1.47908 13.96848,2.28456 26.1318,0.28896 27.19605,0.10381 l 0.0341,0.0172 c 0,0 0.006,-0.0151 0.006,-0.0227 0.0133,-0.003 0.0374,-0.009 0.0374,-0.009 l -0.0294,-0.0152 c 0.20312,-0.94343 3.04164,-15.57605 -14.25446,-26.2407 0,0 -13.61424,-8.71635 -26.57373,-5.01514 0.052,0.0543 0.10721,0.0936 0.15127,0.15206 0.84163,1.0552 0.13329,2.33393 -1.56957,2.85344 -1.44934,0.43898 -3.144,0.18843 -4.13514,-0.54172 -1.009,0.62629 -1.99853,1.35124 -2.96527,2.19398 -18.39445,10.73512 5.39273,21.50543 5.39273,21.50543"
       style="fill:#c67430;fill-opacity:1;fill-rule:nonzero;stroke:none;stroke-width:1.27904177"
       id="path8619-6"
       inkscape:connector-curvature="0" />
    <path
       d="m 140.99097,262.74144 -16.18147,-8.74756 1.10323,-0.78434 17.18399,9.2812 z"
       style="fill:#874b15;fill-opacity:1;fill-rule:nonzero;stroke:none;stroke-width:1.27904177"
       id="path8623-0"
       inkscape:connector-curvature="0" />
    <path
       d="m 148.39132,266.24962 -1.13576,13.28848 -1.68978,-0.0574 1.20561,-14.101 z"
       style="fill:#874b15;fill-opacity:1;fill-rule:nonzero;stroke:none;stroke-width:1.27904177"
       id="path8627-9"
       inkscape:connector-curvature="0" />
    <path
       d="m 159.88959,272.45204 -1.00902,9.43327 -1.68978,-0.0673 1.10488,-10.22867 z"
       style="fill:#874b15;fill-opacity:1;fill-rule:nonzero;stroke:none;stroke-width:1.27904177"
       id="path8631-2"
       inkscape:connector-curvature="0" />
    <path
       d="m 170.41915,278.1323 -0.96674,7.38532 -1.68332,-0.0845 1.07402,-8.15249 z"
       style="fill:#874b15;fill-opacity:1;fill-rule:nonzero;stroke:none;stroke-width:1.27904177"
       id="path8635-7"
       inkscape:connector-curvature="0" />
    <path
       d="m 169.56631,263.648 -21.27038,2.5534 -1.45421,-0.78435 -0.0291,-0.10291 22.42886,-2.69133 z"
       style="fill:#874b15;fill-opacity:1;fill-rule:nonzero;stroke:none;stroke-width:1.27904177"
       id="path8639-2"
       inkscape:connector-curvature="0" />
    <path
       d="m 158.20612,271.54357 16.37644,-2.10535 0.34287,1.025 -15.12047,1.94424 z"
       style="fill:#874b15;fill-opacity:1;fill-rule:nonzero;stroke:none;stroke-width:1.27904177"
       id="path8643-5"
       inkscape:connector-curvature="0" />
    <path
       d="m 182.18781,276.44798 -11.84808,1.64215 -1.4461,-0.78235 -0.0341,-0.0844 12.96111,-1.7932 z"
       style="fill:#874b15;fill-opacity:1;fill-rule:nonzero;stroke:none;stroke-width:1.27904177"
       id="path8647-2"
       inkscape:connector-curvature="0" />
    <path
       d="m 185.48276,286.68961 -45.44912,-24.48672 1.11622,-0.78939 46.43377,25.02538 z"
       style="fill:#874b15;fill-opacity:1;fill-rule:nonzero;stroke:none;stroke-width:1.27904177"
       id="path8651-6"
       inkscape:connector-curvature="0" />
    <path
       d="m -14.196599,210.18726 c -0.39969,0.30407 -1.119488,0.35541 -1.608562,0.1107 -0.490692,-0.24373 -0.565437,-0.68766 -0.175486,-0.99477 0.396471,-0.30104 1.111369,-0.35138 1.603694,-0.1106 0.489075,0.24659 0.567056,0.6897 0.180354,0.99476 m -27.327638,16.30291 c -0.68892,0.53466 -1.944895,0.62226 -2.802796,0.19317 -0.856269,-0.42791 -0.99764,-1.20622 -0.303836,-1.73583 0.685668,-0.53363 1.940026,-0.61923 2.802796,-0.19122 0.857902,0.42689 0.994389,1.20623 0.303836,1.73381 m -19.634179,-9.75745 c 0.393188,-0.30608 1.116236,-0.35644 1.602059,-0.10979 0.489059,0.24373 0.570307,0.68766 0.170585,0.9877 -0.386686,0.31113 -1.106483,0.36043 -1.600427,0.11196 -0.485822,-0.24176 -0.565437,-0.68774 -0.17225,-0.98975 M -26.03011,202.9963 c -4.120528,-0.54875 -8.080175,-0.70686 -11.807484,-0.61622 0.03091,0.49939 -0.196593,1.00588 -0.742539,1.42369 -1.174726,0.91525 -3.332471,1.06125 -4.80618,0.32724 -0.671031,-0.33528 -1.065868,-0.79541 -1.208857,-1.28073 -14.215442,1.61099 -23.853812,6.61907 -24.69384,7.0651 l -0.04244,-0.006 c 0,0 0.0079,0.0151 0.01448,0.0286 -0.01288,0.003 -0.02947,0.0172 -0.02947,0.0172 l 0.03925,0.003 c 0.466317,0.90922 7.922582,14.90148 30.894099,20.00222 0,0 18.301858,4.30532 27.495004,-2.45572 -0.08121,-0.0356 -0.162481,-0.0586 -0.24208,-0.0987 -1.483447,-0.73502 -1.717404,-2.07713 -0.529675,-2.99941 1.004127,-0.77329 2.711795,-0.99477 4.1123932,-0.59503 0.4825718,-0.83271 0.8822611,-1.75097 1.1763606,-2.7709 C 2.8879279,206.4805 -26.030413,202.99778 -26.030413,202.99778"
       style="fill:#c67430;fill-opacity:1;fill-rule:nonzero;stroke:none;stroke-width:1.27904177"
       id="path9139-6"
       inkscape:connector-curvature="0" />
    <path
       d="m -8.4074021,220.28725 20.6415561,3.65486 -0.463064,1.00586 -21.910552,-3.87839 z"
       style="fill:#2d1b09;fill-opacity:1;fill-rule:nonzero;stroke:none;stroke-width:1.27904177"
       id="path9143-9"
       inkscape:connector-curvature="0" />
    <path
       d="m -17.513645,219.06212 -8.083428,-12.32796 1.564693,-0.3937 8.580606,13.08513 z"
       style="fill:#874b15;fill-opacity:1;fill-rule:nonzero;stroke:none;stroke-width:1.27904177"
       id="path9147-7"
       inkscape:connector-curvature="0" />
    <path
       d="m -32.179005,216.47518 -5.555207,-8.80798 1.576067,-0.3796 6.018271,9.54902 z"
       style="fill:#874b15;fill-opacity:1;fill-rule:nonzero;stroke:none;stroke-width:1.27904177"
       id="path9151-7"
       inkscape:connector-curvature="0" />
    <path
       d="m -45.605767,214.10655 -4.18712,-6.94329 1.579301,-0.36449 4.620957,7.66321 z"
       style="fill:#874b15;fill-opacity:1;fill-rule:nonzero;stroke:none;stroke-width:1.27904177"
       id="path9155-6"
       inkscape:connector-curvature="0" />
    <path
       d="m -34.899416,226.98918 17.497561,-7.90785 1.860395,0.32622 0.09594,0.0836 -18.456202,8.34178 z"
       style="fill:#874b15;fill-opacity:1;fill-rule:nonzero;stroke:none;stroke-width:1.27904177"
       id="path9159-3"
       inkscape:connector-curvature="0" />
    <path
       d="m -30.032151,216.85274 -13.380301,6.22237 -1.012246,-0.84272 12.353416,-5.73809 z"
       style="fill:#874b15;fill-opacity:1;fill-rule:nonzero;stroke:none;stroke-width:1.27904177"
       id="path9163-9"
       inkscape:connector-curvature="0" />
    <path
       d="m -55.10797,218.7258 9.60424,-4.60235 1.847422,0.32422 0.08778,0.0664 -10.506008,5.03933 z"
       style="fill:#874b15;fill-opacity:1;fill-rule:nonzero;stroke:none;stroke-width:1.27904177"
       id="path9167-3"
       inkscape:connector-curvature="0" />
    <path
       d="m -65.10671,210.3268 57.9341743,10.19745 -0.4679494,1.00989 L -66.83877,211.1031 Z"
       style="fill:#874b15;fill-opacity:1;fill-rule:nonzero;stroke:none;stroke-width:1.27904177"
       id="path9171-7"
       inkscape:connector-curvature="0" />
    <path
       inkscape:connector-curvature="0"
       id="path4700"
       style="fill:#aeaca5;fill-opacity:1;fill-rule:nonzero;stroke:none;stroke-width:1.46174479"
       d="m 230.11636,210.95082 c -0.54067,9.23938 -6.36327,17.92866 -16.00539,22.21704 l -4.24472,1.8881 c -14.08122,6.25946 -30.97353,0.76254 -37.73165,-12.27978 l -20.39137,-39.36062 c -6.76268,-13.04239 -0.82615,-28.69742 13.25356,-34.9569 l 4.2508,-1.89094 c 14.07664,-6.25667 30.96896,-0.75693 37.72556,12.28543 l 20.39594,39.36061 c 2.13069,4.11249 3.00091,8.48104 2.74727,12.73706" />
    <path
       inkscape:connector-curvature="0"
       id="path4676"
       style="fill:#e0e0e0;fill-opacity:1;fill-rule:nonzero;stroke:none;stroke-width:1.46174479"
       d="m 86.791872,215.72355 c -1.240774,0 -2.499758,-0.28986 -3.653967,-0.89482 -3.594714,-1.87546 -4.868899,-6.08784 -2.845996,-9.41948 9.970118,-16.40635 19.320676,-30.58833 27.788851,-42.12666 2.31903,-3.15859 6.96468,-3.98307 10.37109,-1.83324 3.414,2.14276 4.29785,6.448 1.97579,9.60238 -8.22975,11.22879 -17.36009,25.07168 -27.123665,41.14461 -1.371365,2.25673 -3.906057,3.52721 -6.512103,3.52721"
       inkscape:transform-center-x="97.785575"
       inkscape:transform-center-y="-7.392487" />
    <path
       inkscape:connector-curvature="0"
       id="path4764"
       style="fill:#8f9699;fill-opacity:1;fill-rule:nonzero;stroke:none;stroke-width:1.46174479"
       d="m 194.87264,88.450674 c 23.57451,32.641066 16.1421,77.637856 -16.62197,100.496476 -32.76407,22.86281 -78.432365,14.9319 -102.011433,-17.712 L 35.790649,115.25151 C 12.210067,82.606249 19.650075,37.612232 52.409598,14.749433 85.176685,-8.1119605 130.84195,-0.18243766 154.42558,32.458611 Z" />
    <path
       inkscape:connector-curvature="0"
       id="path4744-5"
       style="fill:#fcfcfc;fill-opacity:1;fill-rule:nonzero;stroke:none;stroke-width:1.46174479"
       d="m 247.10557,120.57929 c -2.884,0 -5.22429,-2.16808 -5.22429,-4.84266 V 73.867452 c 0,-23.525492 -18.3168,-43.285994 -42.60814,-45.963412 -2.8673,-0.312336 -4.9145,-2.718208 -4.56971,-5.373108 0.34018,-2.656304 2.94014,-4.551458 5.80132,-4.233485 29.54755,3.251436 51.82509,27.144129 51.82509,55.570005 v 41.869178 c 0,2.67458 -2.33575,4.84266 -5.22427,4.84266" />
    <path
       inkscape:connector-curvature="0"
       id="path4664"
       style="fill:#5b543f;fill-opacity:1;fill-rule:nonzero;stroke:none;stroke-width:1.46174479"
       d="m 100.43768,203.1434 c -1.22103,0 -2.454198,-0.39816 -3.442868,-1.20994 C 82.344101,190.01101 68.707848,175.70241 56.45815,159.41425 18.469824,108.88107 5.6445517,53.949865 25.970596,28.803579 c 1.731324,-2.141359 5.004057,-2.574692 7.312461,-0.974999 2.309909,1.601098 2.786781,4.634455 1.053981,6.773014 -17.417783,21.551536 -4.218928,72.833166 30.697107,119.274916 11.604261,15.43134 25.040039,29.53734 38.852455,40.78866 2.16867,1.76573 2.37977,4.823 0.47838,6.83491 -1.02966,1.089 -2.47544,1.64332 -3.9273,1.64332" />
    <path
       inkscape:connector-curvature="0"
       id="path4672"
       style="fill:#494333;fill-opacity:1;fill-rule:nonzero;stroke:none;stroke-width:1.46174479"
       d="m 144.99645,215.05303 c -0.91276,0 -1.83308,-0.2251 -2.67592,-0.68518 C 117.71026,200.73598 92.802365,178.40218 72.192325,151.4719 53.409258,126.94327 39.9188,101.1104 33.169761,76.780158 c -0.719846,-2.592996 0.964373,-5.2324 3.760269,-5.899304 2.800441,-0.662666 5.640376,0.897628 6.364804,3.48361 6.340477,22.876858 19.62593,48.269356 37.421835,71.512046 19.794511,25.84975 43.575571,47.22682 66.964791,60.17913 2.47999,1.36753 3.28645,4.34184 1.80422,6.63236 -0.97805,1.52085 -2.71086,2.36503 -4.48923,2.36503" />
    <path
       inkscape:connector-curvature="0"
       id="path4680"
       style="fill:#84501c;fill-opacity:1;fill-rule:nonzero;stroke:none;stroke-width:1.46174479"
       d="m 59.209393,233.4751 c -0.160912,0 -0.317401,-0.007 -0.479898,-0.017 -3.292495,-0.24478 -5.746692,-2.90955 -5.482447,-5.95558 0.71834,-8.42336 8.24948,-20.66656 26.030229,-19.94057 3.290978,0.1393 5.843893,2.72524 5.692018,5.77972 -0.148799,3.05446 -2.915863,5.39141 -6.238741,5.27322 -12.35145,-0.5262 -13.484391,8.71318 -13.577026,9.767 -0.246037,2.89405 -2.862713,5.09312 -5.944135,5.09312" />
    <path
       inkscape:connector-curvature="0"
       id="path4688"
       style="fill:#5b543f;fill-opacity:1;fill-rule:nonzero;stroke:none;stroke-width:1.46174479"
       d="m 141.72093,232.4749 c -0.70312,0 -1.42298,-0.13231 -2.10639,-0.41223 -6.44378,-2.63382 -13.10322,-6.19334 -19.79909,-10.57177 -2.35696,-1.54341 -2.91889,-4.57113 -1.25442,-6.74771 1.66905,-2.18356 4.9251,-2.70414 7.28515,-1.1607 6.12785,4.01121 12.18283,7.25277 17.9857,9.62913 2.64253,1.07487 3.84079,3.93097 2.67292,6.37905 -0.86262,1.80932 -2.77617,2.88423 -4.78387,2.88423" />
    <path
       inkscape:connector-curvature="0"
       id="path4692"
       style="fill:#494333;fill-opacity:1;fill-rule:nonzero;stroke:none;stroke-width:1.46174479"
       d="m 65.656358,167.79948 c -1.594612,0 -3.175564,-0.67392 -4.20067,-1.95566 -1.684222,-2.09353 -3.359345,-4.25602 -4.997984,-6.42971 C 18.470897,108.88095 5.6441024,53.949719 25.971671,28.803442 c 1.729785,-2.139954 5.002533,-2.574701 7.310921,-0.975009 2.311448,1.601098 2.786796,4.634472 1.053983,6.773014 -17.417769,21.551551 -4.218895,72.833153 30.698643,119.274923 1.574865,2.09354 3.19379,4.17722 4.811192,6.19899 1.720657,2.14557 1.237718,5.17473 -1.076757,6.77299 -0.93702,0.64161 -2.035031,0.95113 -3.113295,0.95113" />
    <path
       inkscape:connector-curvature="0"
       id="path4696"
       style="fill:#3a352b;fill-opacity:1;fill-rule:nonzero;stroke:none;stroke-width:1.46174479"
       d="m 38.964452,126.85254 c -1.95758,0 -3.834679,-1.01863 -4.72463,-2.76326 C 13.848483,84.23063 10.685075,47.721895 25.970596,28.804151 c 1.731324,-2.141363 5.004057,-2.576108 7.312461,-0.976417 2.309909,1.602504 2.786781,4.634464 1.053981,6.774429 -12.763017,15.797151 -9.0954,49.290807 9.342926,85.342287 1.236197,2.41571 0.129081,5.29994 -2.483055,6.448 -0.721367,0.31517 -1.486779,0.46009 -2.232457,0.46009" />
    <path
       inkscape:connector-curvature="0"
       id="path4708"
       style="fill:#898989;fill-opacity:1;fill-rule:nonzero;stroke:none;stroke-width:1.46174479"
       d="m 196.2749,241.65297 h -0.11676 C 184.64652,241.41803 174.403,235.30201 169.42628,225.69403 L 151.2886,190.68931 c -2.06389,-3.98871 -3.09814,-8.42056 -2.9827,-12.81724 0.0637,-2.63382 2.38889,-4.72453 5.21665,-4.72453 h 0.12616 c 2.884,0.0619 5.16808,2.27784 5.10278,4.95383 -0.0744,2.91519 0.58469,5.74457 1.96063,8.39946 l 18.13306,35.00473 c 3.27125,6.29887 9.98838,10.31288 17.54687,10.47049 2.87943,0.0576 5.1696,2.26655 5.10732,4.94256 -0.0653,2.63943 -2.38888,4.73436 -5.22425,4.73436" />
    <path
       inkscape:connector-curvature="0"
       id="path4712"
       style="fill:#9b9b9b;fill-opacity:1;fill-rule:nonzero;stroke:none;stroke-width:1.46174479"
       d="m 211.4728,237.68214 c -1.94845,0 -3.81644,-1.0144 -4.71398,-2.74635 -1.25441,-2.41291 -0.15652,-5.30836 2.44964,-6.45927 3.33351,-1.48574 6.14918,-3.78327 8.12952,-6.64495 1.56117,-2.25396 4.79145,-2.90679 7.22131,-1.46325 2.42687,1.44212 3.13456,4.44028 1.57792,6.68859 -3.03127,4.3728 -7.32309,7.88592 -12.41068,10.14266 -0.72591,0.32782 -1.49588,0.48257 -2.25373,0.48257" />
    <path
       inkscape:connector-curvature="0"
       id="path4716"
       style="fill:#939189;fill-opacity:1;fill-rule:nonzero;stroke:none;stroke-width:1.46174479"
       d="m 193.32579,199.57526 c 4.36315,8.41352 0.53456,18.50973 -8.54413,22.55186 l -2.74426,1.21422 c -9.07565,4.04214 -19.97981,0.49524 -24.33081,-7.9211 l -13.15938,-25.38686 c -4.35405,-8.41351 -0.53,-18.50691 8.54715,-22.54342 l 2.74577,-1.21982 c 9.07717,-4.03936 19.97675,-0.49243 24.33539,7.92249 z" />
    <path
       inkscape:connector-curvature="0"
       id="path4720"
       style="fill:#7a7973;fill-opacity:1;fill-rule:nonzero;stroke:none;stroke-width:1.46174479"
       d="m 191.512,211.77471 c -0.0729,0 -0.14429,0 -0.2187,-0.003 -2.47087,-0.10687 -4.37378,-2.05555 -4.2599,-4.34464 0.0834,-1.60392 -0.25969,-3.15859 -1.019,-4.61898 l -2.03051,-3.92679 c -1.07369,-2.06397 -0.13226,-4.54162 2.10036,-5.5349 2.22791,-0.98908 4.90076,-0.12103 5.97296,1.94859 l 2.03051,3.92399 c 1.3926,2.67739 2.04409,5.65448 1.89681,8.59923 -0.11848,2.22858 -2.10035,3.95633 -4.47253,3.95633" />
    <path
       inkscape:connector-curvature="0"
       id="path4732"
       style="fill:#4c4b49;fill-opacity:1;fill-rule:nonzero;stroke:none;stroke-width:1.46174479"
       d="m 160.95735,218.09764 c -1.66296,0 -3.26517,-0.86383 -4.03517,-2.3496 l -6.53335,-12.60478 c -1.06763,-2.06678 -0.12762,-4.53877 2.10336,-5.53491 2.22335,-0.9947 4.89927,-0.12246 5.973,1.94581 l 6.53334,12.60339 c 1.07071,2.06258 0.12445,4.5402 -2.10338,5.53209 -0.62416,0.27999 -1.28329,0.408 -1.9378,0.408" />
    <path
       inkscape:connector-curvature="0"
       id="path4768"
       style="fill:#6b6b6a;fill-opacity:1;fill-rule:nonzero;stroke:none;stroke-width:1.46174479"
       d="m 49.198544,78.905222 c -2.297755,0 -4.401124,-1.418203 -5.038985,-3.566618 -2.454182,-8.330486 -3.459556,-16.942376 -2.98725,-25.604916 0.144134,-2.670401 2.574169,-4.728756 5.476376,-4.592274 2.885501,0.132293 5.107325,2.405878 4.960011,5.076262 -0.416107,7.639688 0.467775,15.23296 2.636441,22.57296 0.762384,2.576109 -0.883864,5.23805 -3.666112,5.944322 -0.461671,0.115317 -0.923358,0.170264 -1.380481,0.170264" />
    <path
       inkscape:connector-curvature="0"
       id="path4772"
       style="fill:#848383;fill-opacity:1;fill-rule:nonzero;stroke:none;stroke-width:1.46174479"
       d="m 82.031101,132.05443 c -1.931779,0 -3.819479,-0.86106 -4.973688,-2.45652 L 55.095752,99.196687 c -1.691829,-2.346763 -3.275807,-4.804696 -4.689697,-7.297807 -1.536907,-2.704123 -0.413079,-6.047021 2.499761,-7.472275 2.921939,-1.426631 6.531833,-0.388291 8.068758,2.321446 1.224055,2.145613 2.584788,4.27009 4.048793,6.290432 l 21.96471,30.406867 c 1.829999,2.53952 1.096494,5.97105 -1.646251,7.67206 -1.019045,0.63311 -2.171716,0.93702 -3.310725,0.93702" />
    <path
       inkscape:connector-curvature="0"
       id="path4776"
       style="fill:#777777;fill-opacity:1;fill-rule:nonzero;stroke:none;stroke-width:1.46174479"
       d="m 108.83343,164.9953 c -1.58553,0 -3.16344,-0.57966 -4.33735,-1.72492 -3.25761,-3.1825 -6.27372,-6.68157 -8.948121,-10.38886 l -6.749007,-9.33506 c -1.834557,-2.54233 -1.099528,-5.97526 1.640182,-7.67485 2.738187,-1.69818 6.449829,-1.02003 8.28289,1.51807 l 6.749016,9.3393 c 2.30537,3.19094 4.89472,6.18915 7.69064,8.92142 2.27042,2.22156 2.16866,5.72202 -0.22476,7.82541 -1.15727,1.01441 -2.63037,1.51949 -4.10349,1.51949" />
    <path
       inkscape:connector-curvature="0"
       id="path4780"
       style="fill:#777777;fill-opacity:1;fill-rule:nonzero;stroke:none;stroke-width:1.46174479"
       d="m 80.973637,95.273284 c -1.843676,0 -3.638767,-0.908891 -4.584897,-2.512802 C 67.234121,77.288343 63.801906,59.074083 66.707138,41.46902 c 0.438882,-2.642239 3.111773,-4.45157 5.960823,-4.053407 2.852098,0.402397 4.808168,2.875796 4.373801,5.515209 -2.565041,15.515768 0.458646,31.559138 8.510714,45.172691 1.386553,2.348186 0.460144,5.29293 -2.073024,6.574647 -0.794255,0.403791 -1.653832,0.595124 -2.505815,0.595124" />
    <path
       inkscape:connector-curvature="0"
       id="path4784"
       style="fill:#777777;fill-opacity:1;fill-rule:nonzero;stroke:none;stroke-width:1.46174479"
       d="m 114.14742,141.72574 c -1.6857,0 -3.33803,-0.75412 -4.34343,-2.14558 L 84.470865,104.51635 c -1.602226,-2.22296 -0.958282,-5.229599 1.43971,-6.715353 2.399515,-1.487137 5.643421,-0.892002 7.248669,1.330984 l 25.325546,35.060999 c 1.60981,2.22155 0.96286,5.22536 -1.43364,6.71253 -0.89602,0.5529 -1.90594,0.82023 -2.90373,0.82023" />
    <path
       inkscape:connector-curvature="0"
       id="path4788"
       style="fill:#848383;fill-opacity:1;fill-rule:nonzero;stroke:none;stroke-width:1.46174479"
       d="m 179.9187,188.20564 c -0.16092,0 -0.32654,-0.007 -0.48904,-0.0196 -17.95082,-1.34083 -35.1013,-8.70615 -48.29864,-20.72708 -2.35244,-2.13996 -2.38434,-5.64183 -0.0714,-7.8254 2.31447,-2.17653 6.0899,-2.20608 8.44694,-0.0618 11.20176,10.20453 25.72493,16.45277 40.88747,17.58959 3.28793,0.24199 5.73301,2.91238 5.46876,5.95979 -0.25056,2.89128 -2.86877,5.08473 -5.94413,5.08473" />
    <path
       inkscape:connector-curvature="0"
       id="path4792"
       style="fill:#777777;fill-opacity:1;fill-rule:nonzero;stroke:none;stroke-width:1.46174479"
       d="m 98.002486,76.521419 c -2.338792,0 -4.464933,-1.456162 -5.064825,-3.651005 -2.449651,-8.965037 -3.230243,-18.198787 -2.331173,-27.438193 0.262732,-2.65771 2.809551,-4.617569 5.676832,-4.384021 2.873336,0.246218 4.99493,2.601428 4.73374,5.263385 -0.79578,8.14056 -0.1047,16.28112 2.05323,24.179678 0.70622,2.595822 -0.9856,5.22681 -3.783004,5.882439 -0.431319,0.102688 -0.862625,0.147717 -1.2848,0.147717" />
    <path
       inkscape:connector-curvature="0"
       id="path4796"
       style="fill:#6b6b6a;fill-opacity:1;fill-rule:nonzero;stroke:none;stroke-width:1.46174479"
       d="m 113.79299,107.13749 c -1.67968,0 -3.33505,-0.75553 -4.34345,-2.14419 l -4.46797,-6.179305 c -2.2021,-3.055856 -4.20066,-6.279188 -5.930472,-9.582683 -1.255922,-2.407256 -0.173145,-5.302757 2.425362,-6.471913 2.59391,-1.167778 5.71936,-0.157589 6.97834,2.2483 1.51868,2.899681 3.27582,5.733287 5.21667,8.419121 l 4.46037,6.177897 c 1.60526,2.222953 0.96439,5.229603 -1.43817,6.715323 -0.88846,0.55715 -1.89683,0.81745 -2.90068,0.81745" />
    <path
       inkscape:connector-curvature="0"
       id="path4816"
       style="fill:#fcfcfc;fill-opacity:1;fill-rule:nonzero;stroke:none;stroke-width:1.46174479"
       d="m 159.30523,97.03449 c -1.68423,0 -3.34415,-0.75129 -4.3465,-2.14699 L 144.32345,80.162459 c -7.06948,-9.776831 -16.66453,-17.426382 -27.75243,-22.098843 -2.62429,-1.111481 -3.78607,-3.977414 -2.59087,-6.41564 1.19672,-2.428391 4.29937,-3.503291 6.92672,-2.398845 12.85261,5.425165 23.95114,14.253735 32.10036,25.530364 l 10.63689,14.722239 c 1.60525,2.224362 0.96132,5.226798 -1.43822,6.713934 -0.89299,0.55571 -1.90289,0.818822 -2.90067,0.818822" />
    <path
       inkscape:connector-curvature="0"
       id="path4836"
       style="fill:#777777;fill-opacity:1;fill-rule:nonzero;stroke:none;stroke-width:1.46174479"
       d="m 143.81294,194.80617 c -22.40212,0 -44.318224,-9.70932 -59.087387,-26.67985 -2.332709,-2.67462 -1.8756,-6.59294 1.014487,-8.75119 2.883965,-2.15827 7.116515,-1.73337 9.443128,0.93984 14.388022,16.52313 35.884972,24.52721 57.520102,21.40801 3.66764,-0.53603 7.10288,1.79527 7.6724,5.19166 0.56802,3.39772 -1.93784,6.57743 -5.60546,7.10504 -3.64331,0.52899 -7.30943,0.78649 -10.95727,0.78649" />
    <path
       inkscape:connector-curvature="0"
       id="path4852"
       style="fill:#99611f;fill-opacity:1;fill-rule:nonzero;stroke:none;stroke-width:1.46174479"
       d="m 134.47683,125.04305 c -2.0229,0 -3.94705,-1.09318 -4.79754,-2.92503 -11.54957,-24.832516 -8.3588,-51.93866 -2.11704,-67.604966 0.9993,-2.507155 4.00022,-3.791717 6.71259,-2.861714 2.70478,0.920141 4.09133,3.703074 3.09052,6.21728 -5.57356,13.989221 -8.41656,38.208325 1.91201,60.41548 1.14057,2.45372 -0.0835,5.30419 -2.73363,6.36081 -0.67579,0.27577 -1.37137,0.39814 -2.06691,0.39814" />
    <path
       inkscape:connector-curvature="0"
       id="path4856"
       style="fill:#d09237;fill-opacity:1;fill-rule:nonzero;stroke:none;stroke-width:1.46174479"
       d="m 207.29719,181.56121 c -7.47344,0 -15.97805,-2.33694 -24.96259,-6.8912 -2.53469,-1.28457 -3.46108,-4.22648 -2.0806,-6.56762 1.38353,-2.35101 4.56214,-3.21206 7.09531,-1.9247 9.21233,4.67386 17.72151,6.56058 23.95416,5.32668 2.82479,-0.55996 5.59786,1.11289 6.19926,3.72839 0.60448,2.61693 -1.19365,5.18601 -4.02144,5.73894 -1.96823,0.39252 -4.03057,0.58951 -6.1841,0.58951" />
    <path
       inkscape:connector-curvature="0"
       id="path4872"
       style="fill:#fcfcfc;fill-opacity:1;fill-rule:nonzero;stroke:none;stroke-width:1.46174479"
       d="m 212.46499,151.41352 c -2.38134,0 -4.5272,-1.52232 -5.08759,-3.76358 -2.14288,-8.66674 -6.16736,-18.21144 -11.63315,-27.59293 -1.36983,-2.34819 -0.42367,-5.29153 2.11708,-6.55493 2.53772,-1.27613 5.70566,-0.3982 7.0816,1.95423 5.90615,10.13559 10.26935,20.51883 12.62178,30.02976 0.64392,2.60427 -1.11016,5.20288 -3.9243,5.80083 -0.39327,0.0844 -0.78362,0.1266 -1.17542,0.1266" />
    <path
       inkscape:connector-curvature="0"
       id="path4876"
       style="fill:#e59e41;fill-opacity:1;fill-rule:nonzero;stroke:none;stroke-width:1.46174479"
       d="m 200.34743,122.59877 c -1.85889,0 -3.66004,-0.9173 -4.60318,-2.54234 -3.00846,-5.15785 -6.45438,-10.28757 -10.24654,-15.24703 -3.82706,-4.99464 -7.44913,-9.917518 -10.7963,-14.502774 -1.6159,-2.215934 -0.9856,-5.223951 1.39872,-6.723751 2.39492,-1.496999 5.6434,-0.91873 7.25929,1.297182 3.31224,4.53459 6.89784,9.411054 10.66416,14.329713 4.03517,5.27743 7.7104,10.74342 10.91935,16.24737 1.36682,2.35663 0.42522,5.29153 -2.11857,6.56339 -0.78972,0.39112 -1.63865,0.57824 -2.47693,0.57824" />
    <path
       inkscape:connector-curvature="0"
       id="path4884"
       style="fill:#fcfcfc;fill-opacity:1;fill-rule:nonzero;stroke:none;stroke-width:1.46174479"
       d="m 196.70423,149.95169 c -2.12613,0 -4.1293,-1.21699 -4.90532,-3.17826 -4.12325,-10.46483 -10.4349,-21.3799 -18.24852,-31.58587 -4.62592,-6.03998 -8.91919,-11.94211 -13.07889,-17.644434 -7.72858,-10.597099 -14.40469,-19.754903 -20.63584,-26.401284 -1.8938,-2.017541 -1.66148,-5.074833 0.51482,-6.827884 2.18083,-1.753049 5.48093,-1.540601 7.3732,0.481173 6.64728,7.089597 13.48743,16.468252 21.40733,27.331253 4.12173,5.658707 8.39072,11.504586 12.94678,17.455926 8.34212,10.90098 15.10028,22.61239 19.53483,33.8679 0.99169,2.51142 -0.40245,5.29011 -3.11027,6.20886 -0.59227,0.20259 -1.2028,0.29262 -1.79812,0.29262" />
    <path
       inkscape:connector-curvature="0"
       id="path4888"
       style="fill:#d09237;fill-opacity:1;fill-rule:nonzero;stroke:none;stroke-width:1.46174479"
       d="m 186.10095,129.15669 c -1.80573,0 -3.55828,-0.86246 -4.52721,-2.41995 -2.44201,-3.89442 -5.14075,-7.78883 -8.0232,-11.5496 -4.62591,-6.03997 -8.91922,-11.94209 -13.07888,-17.644444 -7.72861,-10.597098 -14.40469,-19.75488 -20.63585,-26.39987 -1.89382,-2.018954 -1.66147,-5.076235 0.51485,-6.829297 2.18082,-1.753041 5.48089,-1.540593 7.37319,0.481184 6.64576,7.089586 13.48741,16.46824 21.40734,27.332654 4.1217,5.657317 8.39072,11.503143 12.94676,17.454523 3.06623,4.00558 5.93957,8.14903 8.53651,12.30512 1.44884,2.31584 0.59383,5.27464 -1.89988,6.61544 -0.82465,0.4446 -1.72521,0.65424 -2.61363,0.65424" />
    <path
       inkscape:connector-curvature="0"
       id="path4892"
       style="fill:#cecece;fill-opacity:1;fill-rule:nonzero;stroke:none;stroke-width:1.46174479"
       d="m 168.13403,104.23426 c -1.6736,0 -3.32287,-0.7471 -4.32977,-2.12449 -1.12534,-1.5378 -2.23399,-3.054484 -3.31984,-4.55145 -7.73617,-10.608351 -14.41232,-19.768955 -20.64802,-26.41676 -1.89377,-2.017553 -1.66293,-5.074834 0.5133,-6.827885 2.18236,-1.753041 5.48094,-1.540595 7.37475,0.481174 6.64877,7.09381 13.49196,16.473888 21.41795,27.343917 1.08889,1.492774 2.19451,3.008051 3.31075,4.540204 1.61891,2.214511 0.99777,5.22257 -1.39418,6.71814 -0.89449,0.56982 -1.91349,0.83715 -2.92494,0.83715" />
    <path
       inkscape:connector-curvature="0"
       id="path4896"
       style="fill:#fcfcfc;fill-opacity:1;fill-rule:nonzero;stroke:none;stroke-width:1.46174479"
       d="m 178.46227,147.58157 c -1.91657,0 -3.75721,-0.97501 -4.67299,-2.65909 -3.44135,-6.32704 -7.54024,-12.61186 -12.18288,-18.67296 -4.62589,-6.0386 -8.9207,-11.93652 -13.07887,-17.63885 -5.26072,-7.21619 -10.23747,-14.038473 -14.8512,-19.719683 -1.73436,-2.134339 -1.27266,-5.174754 1.02967,-6.778665 2.30686,-1.612339 5.58117,-1.177595 7.32001,0.952507 4.77933,5.878202 9.82591,12.803194 15.16103,20.129131 4.12475,5.65449 8.39378,11.50174 12.94677,17.45451 4.93876,6.45506 9.31258,13.15632 12.98475,19.91527 1.29693,2.38337 0.26272,5.29996 -2.31294,6.50288 -0.75483,0.34471 -1.55969,0.51495 -2.34335,0.51495" />
    <path
       inkscape:connector-curvature="0"
       id="path4904"
       style="fill:#cecece;fill-opacity:1;fill-rule:nonzero;stroke:none;stroke-width:1.46174479"
       d="m 149.46484,106.09182 c -1.66903,0 -3.31374,-0.74286 -4.3313,-2.12588 -3.73592,-5.104397 -7.70881,-10.462031 -11.45689,-15.075382 -1.73588,-2.139942 -1.27269,-5.17332 1.02965,-6.778632 2.30535,-1.608147 5.58116,-1.177628 7.32308,0.952485 3.88024,4.782181 7.94575,10.265042 11.75461,15.465113 1.62496,2.213106 1.00233,5.225376 -1.38656,6.725186 -0.90361,0.567 -1.91964,0.83711 -2.93259,0.83711" />
    <path
       inkscape:connector-curvature="0"
       id="path4908"
       style="fill:#cecece;fill-opacity:1;fill-rule:nonzero;stroke:none;stroke-width:1.46174479"
       d="m 220.71807,167.99639 c -0.12617,0 -0.24909,0 -0.37967,-0.007 -2.8779,-0.19417 -5.04054,-2.50999 -4.83549,-5.18178 0.86868,-11.05575 -3.36997,-26.02985 -11.62402,-41.08693 -1.30605,-2.38336 -0.28094,-5.29855 2.29019,-6.51131 2.57719,-1.20858 5.72088,-0.2575 7.02541,2.12445 9.22295,16.82703 13.74864,33.22355 12.73722,46.17725 -0.20201,2.54657 -2.49522,4.48535 -5.21364,4.48535" />
    <path
       inkscape:connector-curvature="0"
       id="path4912"
       style="fill:#e0e0e0;fill-opacity:1;fill-rule:nonzero;stroke:none;stroke-width:1.46174479"
       d="m 99.98391,231.32629 c -1.224077,0 -2.467887,-0.27715 -3.619047,-0.87088 -3.599274,-1.85857 -4.894716,-6.06813 -2.899166,-9.40542 10.923883,-18.20301 21.127933,-33.78208 30.317483,-46.31372 2.32054,-3.16139 6.96618,-3.97463 10.37109,-1.83182 3.41245,2.14696 4.2933,6.45083 1.97577,9.60938 -8.94048,12.18837 -18.90152,27.41851 -29.61277,45.25994 -1.36226,2.27644 -3.9106,3.55252 -6.53336,3.55252" />
    <path
       inkscape:connector-curvature="0"
       id="path5108"
       style="fill:#d09237;fill-opacity:1;fill-rule:nonzero;stroke:none;stroke-width:1.46174479"
       d="m 144.51578,61.02031 c -1.58401,0 -3.14977,-0.664074 -4.17639,-1.933143 -2.10943,-2.59017 -4.00326,-4.773752 -5.78465,-6.680148 -1.89684,-2.01474 -1.66449,-5.070622 0.51936,-6.829309 2.1748,-1.753045 5.47639,-1.533562 7.36715,0.479782 1.95,2.080855 3.99109,4.436066 6.2448,7.210571 1.73893,2.135729 1.27266,5.169099 -1.02966,6.780049 -0.94158,0.654225 -2.04412,0.972198 -3.14061,0.972198" />
    <path
       inkscape:connector-curvature="0"
       id="path5112"
       style="fill:#d09237;fill-opacity:1;fill-rule:nonzero;stroke:none;stroke-width:1.46174479"
       d="m 161.64179,58.2257 c -1.58396,0 -3.15432,-0.666889 -4.1779,-1.930328 -2.1398,-2.63379 -12.16767,-14.421156 -13.97645,-16.348669 -1.8877,-2.016142 -1.65837,-5.076236 0.51941,-6.83492 2.17932,-1.747416 5.47944,-1.53357 7.36866,0.483987 2.05174,2.186394 12.3803,14.342372 14.43659,16.874854 1.73889,2.138557 1.27569,5.174741 -1.03268,6.780062 -0.94314,0.65282 -2.04266,0.975014 -3.13763,0.975014" />
    <path
       inkscape:connector-curvature="0"
       id="path5116"
       style="fill:#99611f;fill-opacity:1;fill-rule:nonzero;stroke:none;stroke-width:1.46174479"
       d="m 87.560776,255.8763 c -0.710751,0 -1.435164,-0.11946 -2.138321,-0.37004 -3.078354,-1.09458 -4.615245,-4.29257 -3.432198,-7.15003 0.903602,-2.18078 1.927192,-4.36295 3.054048,-6.48039 l 6.51364,-12.31498 c 1.451849,-2.74352 5.028342,-3.88313 7.988271,-2.53671 2.965974,1.33941 4.183964,4.664 2.732114,7.40334 l -6.510617,12.31776 c -0.964351,1.8248 -1.85429,3.70307 -2.630336,5.58417 -0.908175,2.19622 -3.172513,3.54688 -5.576601,3.54688" />
    <path
       inkscape:connector-curvature="0"
       id="path5120"
       style="fill:#99611f;fill-opacity:1;fill-rule:nonzero;stroke:none;stroke-width:1.46174479"
       d="m 106.93292,252.95253 c -2.79739,0 -5.29412,-1.83889 -5.85147,-4.47827 -0.48597,-2.30037 -0.86415,-4.65699 -1.123847,-6.99956 l -1.53538,-13.63889 c -0.344727,-3.04041 2.038087,-5.75863 5.324507,-6.07799 3.28339,-0.31234 6.21447,1.89092 6.55768,4.93133 l 1.53236,13.64173 c 0.22628,2.02176 0.55127,4.04074 0.9674,6.02593 0.63328,2.99956 -1.48074,5.89929 -4.71857,6.48741 -0.38726,0.0677 -0.76844,0.10834 -1.15268,0.10834" />
    <path
       inkscape:connector-curvature="0"
       id="path5124"
       style="fill:#140e04;fill-opacity:1;fill-rule:nonzero;stroke:none;stroke-width:1.46174479"
       d="m 88.274852,255.35137 c 0,0 -0.118479,0.13644 -0.329552,0.39254 -0.206542,0.20682 -0.443459,0.59515 -0.744121,1.06647 -0.27796,0.47134 -0.577137,1.04957 -0.848988,1.67423 -0.253615,0.63453 -0.563421,1.31268 -0.791234,2.01335 -0.25967,0.6908 -0.499623,1.39287 -0.659091,2.06398 -0.17015,0.66687 -0.378149,1.30283 -0.449528,1.84592 -0.198962,1.09741 -0.31133,1.83466 -0.31133,1.83466 l -0.0054,0.0352 c -0.05473,0.34191 -0.39791,0.58249 -0.765418,0.53186 -0.308282,-0.038 -0.53457,-0.27155 -0.578622,-0.54591 0,0 -0.101784,-0.75835 -0.25058,-1.91345 -0.09728,-0.57822 -0.142863,-1.25218 -0.20804,-1.97817 -0.08044,-0.73864 -0.104696,-1.52371 -0.142862,-2.3074 -0.09277,-1.5884 0.0027,-3.17405 0.0093,-4.40791 0.0054,-0.31094 0.0054,-0.59797 0.0054,-0.84981 0.0052,-0.26875 0.01445,-0.50789 0.01445,-0.70625 0.01829,-0.41507 0,-0.58811 0,-0.58811 -0.20352,-1.76857 1.192151,-3.3598 3.105694,-3.54551 1.913543,-0.18572 3.625091,1.10725 3.822514,2.88284 0.09728,0.86105 -0.180713,1.67566 -0.713772,2.31581 z" />
    <path
       inkscape:connector-curvature="0"
       id="path5128"
       style="fill:#140e04;fill-opacity:1;fill-rule:nonzero;stroke:none;stroke-width:1.46174479"
       d="m 104.98188,250.02454 c 0,0 0.0486,0.12802 0.11847,0.3588 0.0804,0.19697 0.13519,0.5304 0.20501,0.93563 0.0638,0.39813 0.0989,0.8779 0.1031,1.37881 -0.008,0.5121 0.0106,1.0622 -0.0288,1.61233 -0.0198,0.54448 -0.0623,1.10022 -0.1459,1.60814 -0.0729,0.50931 -0.11543,1.00457 -0.2278,1.40131 -0.17617,0.81885 -0.31284,1.36331 -0.31284,1.36331 l -0.005,0.0268 c -0.0623,0.24907 0.1047,0.50231 0.37666,0.55998 0.22629,0.0521 0.45711,-0.0521 0.55886,-0.23215 0,0 0.3007,-0.50366 0.74112,-1.27748 0.23387,-0.37846 0.46472,-0.83995 0.72594,-1.33236 0.26728,-0.49385 0.51329,-1.03413 0.77301,-1.57719 0.52852,-1.08476 0.92184,-2.2188 1.27872,-3.08402 0.0897,-0.21949 0.17016,-0.4221 0.23998,-0.59795 0.0819,-0.18993 0.14427,-0.36017 0.19742,-0.49807 0.11689,-0.29405 0.17156,-0.40659 0.17156,-0.40659 0.6652,-1.19311 0.1535,-2.65068 -1.12988,-3.26133 -1.28483,-0.61058 -2.86122,-0.13773 -3.52033,1.05662 -0.3159,0.58106 -0.35688,1.22122 -0.17016,1.79953 z" />
    <path
       inkscape:connector-curvature="0"
       id="path5132"
       style="fill:#99611f;fill-opacity:1;fill-rule:nonzero;stroke:none;stroke-width:1.46174479"
       d="m 97.438138,230.41934 c -1.583977,0 -3.163436,-0.57823 -4.338888,-1.72909 -8.475768,-8.32204 -16.230157,-2.42978 -17.088196,-1.72491 -2.47547,2.01758 -6.246371,1.79806 -8.430238,-0.48961 -2.183848,-2.2919 -1.9439,-5.78536 0.527001,-7.80994 6.840153,-5.58838 21.455944,-9.55736 33.673733,2.42414 2.26284,2.22157 2.15655,5.72627 -0.24298,7.82261 -1.15117,1.00739 -2.627326,1.5068 -4.100432,1.5068" />
    <path
       inkscape:connector-curvature="0"
       id="path5136"
       style="fill:#140e04;fill-opacity:1;fill-rule:nonzero;stroke:none;stroke-width:1.46174479"
       d="m 72.389576,227.58354 c 0,0 -0.119791,0.13501 -0.335612,0.38832 -0.205035,0.20962 -0.443479,0.60076 -0.739611,1.06505 -0.279425,0.47272 -0.574053,1.05239 -0.844368,1.68272 -0.259695,0.62748 -0.564971,1.30844 -0.797314,2.00629 -0.256653,0.6936 -0.499645,1.39708 -0.656069,2.06678 -0.176191,0.67115 -0.378152,1.30142 -0.449548,1.84169 -0.198932,1.09883 -0.314359,1.8389 -0.314359,1.8389 l -0.0015,0.0322 c -0.05606,0.3461 -0.397914,0.58388 -0.765427,0.53465 -0.305245,-0.0408 -0.539109,-0.26874 -0.574055,-0.54731 0,0 -0.109387,-0.75978 -0.264245,-1.90782 -0.09113,-0.58247 -0.132128,-1.25499 -0.205017,-1.98378 -0.07736,-0.73582 -0.101688,-1.51809 -0.139824,-2.3088 -0.08952,-1.58423 0.0032,-3.16844 0.01114,-4.40654 0.0048,-0.31094 0.01114,-0.59653 0.01114,-0.84699 0.0032,-0.27291 0.01114,-0.51072 0.01114,-0.70487 0.01602,-0.41787 0,-0.58953 0,-0.58953 -0.205017,-1.77554 1.192168,-3.35977 3.10266,-3.54266 1.913552,-0.18854 3.628138,1.10022 3.827054,2.8758 0.09578,0.85963 -0.183749,1.68131 -0.718324,2.32147 z" />
    <path
       inkscape:connector-curvature="0"
       id="path5140"
       style="fill:#140e04;fill-opacity:1;fill-rule:nonzero;stroke:none;stroke-width:1.46174479"
       d="m 61.285744,232.12444 c 0,0 -0.116916,0.14491 -0.329556,0.39395 -0.20654,0.20824 -0.443462,0.60077 -0.744159,1.0721 -0.277921,0.46992 -0.571026,1.04536 -0.839819,1.67147 -0.259698,0.63732 -0.571028,1.30986 -0.797314,2.01192 -0.258175,0.6908 -0.501167,1.39568 -0.66062,2.06821 -0.171578,0.6683 -0.375138,1.30282 -0.444984,1.84448 -0.197425,1.09601 -0.312853,1.83043 -0.312853,1.83043 l -0.0048,0.0395 c -0.05172,0.33765 -0.391827,0.57824 -0.765413,0.52901 -0.30526,-0.0395 -0.537617,-0.27153 -0.575589,-0.54449 0,0 -0.10475,-0.75834 -0.256638,-1.91205 -0.09417,-0.57822 -0.138218,-1.25078 -0.205035,-1.98377 -0.08201,-0.73161 -0.106335,-1.51528 -0.14574,-2.30458 -0.08952,-1.58281 0.0063,-3.16985 0.01285,-4.40375 0.0095,-0.31374 0.01286,-0.59932 0.01286,-0.85538 0.0032,-0.26452 0.01447,-0.50228 0.01447,-0.70208 0.01114,-0.41504 0,-0.58811 0,-0.58811 -0.209583,-1.77416 1.189124,-3.36118 3.099633,-3.54407 1.913534,-0.18572 3.625094,1.10586 3.822521,2.87578 0.09722,0.86106 -0.179202,1.68834 -0.716818,2.31724 z" />
    <path
       inkscape:connector-curvature="0"
       id="path4700-8"
       style="fill:#aeaca5;fill-opacity:1;fill-rule:nonzero;stroke:none;stroke-width:1.46174479"
       d="m 221.19639,213.72464 c -0.54064,9.2394 -6.36328,17.92869 -16.0054,22.21704 l -4.24471,1.8881 c -14.08122,6.25949 -30.97351,0.76257 -37.73165,-12.2798 l -20.39137,-39.36061 c -6.76268,-13.04235 -0.82615,-28.6974 13.25354,-34.95687 l 4.2508,-1.89095 c 14.07665,-6.25665 30.96898,-0.75693 37.72561,12.28541 l 20.39593,39.36061 c 2.13069,4.1125 3.0009,8.48108 2.74725,12.73707" />
    <path
       inkscape:connector-curvature="0"
       id="path4676-6"
       style="fill:#e0e0e0;fill-opacity:1;fill-rule:nonzero;stroke:none;stroke-width:1.46174479"
       d="m 77.871891,218.49739 c -1.240774,0 -2.499745,-0.28985 -3.653968,-0.89484 -3.594714,-1.87543 -4.8689,-6.08784 -2.845992,-9.41945 9.970141,-16.40637 19.320685,-30.58838 27.788846,-42.12669 2.319033,-3.15857 6.964683,-3.98305 10.371093,-1.83324 3.41399,2.14277 4.29788,6.44801 1.97581,9.60237 -8.22976,11.22881 -17.36007,25.07172 -27.123686,41.14465 -1.371365,2.25673 -3.906045,3.5272 -6.512103,3.5272"
       inkscape:transform-center-x="97.785578"
       inkscape:transform-center-y="-7.3924804" />
    <path
       inkscape:connector-curvature="0"
       id="path4764-1"
       style="fill:#8f9699;fill-opacity:1;fill-rule:nonzero;stroke:none;stroke-width:1.46174479"
       d="M 185.95267,91.224521 C 209.5272,123.86555 202.09476,168.86238 169.33069,191.721 136.56663,214.58377 90.898324,206.65286 67.319262,174.00899 L 26.870668,118.02537 C 3.2900866,85.380096 10.73011,40.386079 43.489617,17.523272 76.256704,-5.3381229 121.922,2.5914 145.5056,35.23245 Z" />
    <path
       inkscape:connector-curvature="0"
       id="path4744-5-0"
       style="fill:#fcfcfc;fill-opacity:1;fill-rule:nonzero;stroke:none;stroke-width:1.46174479"
       d="m 238.18559,123.35314 c -2.884,0 -5.22427,-2.16809 -5.22427,-4.84266 V 76.641277 c 0,-23.525479 -18.31682,-43.285979 -42.60814,-45.963397 -2.86729,-0.312338 -4.9145,-2.718211 -4.56973,-5.373107 0.34016,-2.656305 2.94016,-4.55146 5.80134,-4.233487 29.54754,3.251435 51.82504,27.144128 51.82504,55.569991 v 41.869203 c 0,2.67457 -2.33571,4.84266 -5.22424,4.84266" />
    <path
       inkscape:connector-curvature="0"
       id="path4664-1"
       style="fill:#5b543f;fill-opacity:1;fill-rule:nonzero;stroke:none;stroke-width:1.46174479"
       d="m 91.517723,205.91726 c -1.221028,0 -2.454196,-0.39816 -3.442866,-1.20999 C 73.424115,192.78483 59.787867,178.47623 47.53817,162.18808 9.54986,111.65494 -3.2754123,56.723703 17.050634,31.577419 c 1.731306,-2.141362 5.004053,-2.574694 7.312457,-0.975 2.30991,1.601106 2.786782,4.634464 1.053969,6.773014 -17.4177702,21.551535 -4.218913,72.833177 30.697103,119.274937 11.60426,15.43133 25.040053,29.53732 38.852471,40.78863 2.168669,1.76573 2.379783,4.82299 0.478379,6.83494 -1.029648,1.08899 -2.475427,1.64332 -3.92729,1.64332" />
    <path
       inkscape:connector-curvature="0"
       id="path4672-7"
       style="fill:#494333;fill-opacity:1;fill-rule:nonzero;stroke:none;stroke-width:1.46174479"
       d="m 136.07646,217.82686 c -0.91273,0 -1.83307,-0.22513 -2.67592,-0.68519 C 108.7903,203.50981 83.882396,181.17601 63.272343,154.24573 44.489276,129.71711 30.99882,103.88424 24.249796,79.554006 c -0.719861,-2.592998 0.96436,-5.232402 3.760254,-5.899305 2.800441,-0.662667 5.640376,0.897639 6.364804,3.483598 6.340492,22.876851 19.62593,48.269341 37.421847,71.512041 19.794495,25.84976 43.575579,47.22682 66.964809,60.17911 2.47997,1.36756 3.28642,4.34184 1.80421,6.63235 -0.97807,1.5209 -2.71087,2.36506 -4.48926,2.36506" />
    <path
       inkscape:connector-curvature="0"
       id="path4680-6"
       style="fill:#84501c;fill-opacity:1;fill-rule:nonzero;stroke:none;stroke-width:1.46174479"
       d="m 50.289411,236.24893 c -0.160909,0 -0.317385,-0.007 -0.47988,-0.017 -3.292496,-0.2448 -5.746707,-2.90953 -5.482463,-5.9556 0.718357,-8.42332 8.249495,-20.66655 26.03023,-19.94057 3.290974,0.1393 5.843891,2.72526 5.692016,5.77973 -0.148787,3.05446 -2.915869,5.39139 -6.238731,5.2732 -12.351445,-0.52619 -13.484402,8.71322 -13.577036,9.76701 -0.246019,2.89408 -2.862711,5.0931 -5.944136,5.0931" />
    <path
       inkscape:connector-curvature="0"
       id="path4688-7"
       style="fill:#5b543f;fill-opacity:1;fill-rule:nonzero;stroke:none;stroke-width:1.46174479"
       d="m 132.80094,235.24874 c -0.70311,0 -1.42296,-0.1323 -2.1064,-0.41224 -6.44376,-2.63378 -13.10318,-6.19333 -19.79904,-10.57176 -2.357,-1.54341 -2.91893,-4.57116 -1.25443,-6.7477 1.66903,-2.18356 4.92507,-2.70415 7.28512,-1.16071 6.12786,4.01119 12.18287,7.25278 17.98575,9.6291 2.64251,1.07488 3.84076,3.93098 2.67288,6.37908 -0.86262,1.80932 -2.77616,2.88423 -4.78387,2.88423" />
    <path
       inkscape:connector-curvature="0"
       id="path4692-1"
       style="fill:#494333;fill-opacity:1;fill-rule:nonzero;stroke:none;stroke-width:1.46174479"
       d="m 56.736378,170.5733 c -1.594612,0 -3.175562,-0.67391 -4.200671,-1.95564 -1.684221,-2.09353 -3.35933,-4.25601 -4.997984,-6.42971 C 9.5509321,111.65479 -3.2758761,56.723557 17.051706,31.57729 c 1.72977,-2.139965 5.002517,-2.574711 7.310921,-0.97501 2.311432,1.601099 2.786781,4.634465 1.053968,6.773007 -17.4177691,21.551552 -4.218897,72.833173 30.698643,119.274923 1.574865,2.09351 3.193789,4.17722 4.811192,6.199 1.720672,2.14555 1.237716,5.1747 -1.076758,6.77299 -0.937021,0.64158 -2.035032,0.9511 -3.113294,0.9511" />
    <path
       inkscape:connector-curvature="0"
       id="path4696-4"
       style="fill:#3a352b;fill-opacity:1;fill-rule:nonzero;stroke:none;stroke-width:1.46174479"
       d="m 30.044471,129.62637 c -1.957561,0 -3.834679,-1.01864 -4.724611,-2.76325 C 4.9285176,87.004476 1.765094,50.495733 17.050634,31.577988 c 1.731306,-2.141361 5.004053,-2.576106 7.312457,-0.976415 2.30991,1.602512 2.786782,4.634465 1.053969,6.77443 -12.763019,15.797152 -9.095387,49.290814 9.342942,85.342287 1.236178,2.41572 0.12908,5.29993 -2.483074,6.448 -0.721367,0.31517 -1.486779,0.46008 -2.232457,0.46008" />
    <path
       inkscape:connector-curvature="0"
       id="path4708-5"
       style="fill:#898989;fill-opacity:1;fill-rule:nonzero;stroke:none;stroke-width:1.46174479"
       d="m 187.35495,244.4268 h -0.11677 c -11.51162,-0.23499 -21.75514,-6.35097 -26.73188,-15.95894 l -18.1377,-35.00472 c -2.06385,-3.98871 -3.09808,-8.42054 -2.98267,-12.81724 0.0639,-2.6338 2.38889,-4.72454 5.21668,-4.72454 h 0.12616 c 2.88399,0.0619 5.16809,2.27787 5.10278,4.95384 -0.0744,2.9152 0.58469,5.74459 1.96065,8.39947 l 18.13305,35.00472 c 3.27125,6.2989 9.98834,10.31286 17.54686,10.47049 2.87944,0.0578 5.16961,2.26656 5.10733,4.94256 -0.0653,2.63941 -2.3889,4.73436 -5.22429,4.73436" />
    <path
       inkscape:connector-curvature="0"
       id="path4712-1"
       style="fill:#9b9b9b;fill-opacity:1;fill-rule:nonzero;stroke:none;stroke-width:1.46174479"
       d="m 202.55283,240.456 c -1.94847,0 -3.81645,-1.01446 -4.71397,-2.74638 -1.25443,-2.41288 -0.15653,-5.30837 2.44964,-6.4593 3.33347,-1.48569 6.14913,-3.78323 8.12949,-6.64494 1.5612,-2.25393 4.79147,-2.90677 7.22134,-1.46324 2.42685,1.44213 3.13457,4.4403 1.5779,6.68862 -3.03129,4.3728 -7.32309,7.88588 -12.41067,10.14265 -0.72594,0.32781 -1.49587,0.48259 -2.25373,0.48259" />
    <path
       inkscape:connector-curvature="0"
       id="path4716-1"
       style="fill:#939189;fill-opacity:1;fill-rule:nonzero;stroke:none;stroke-width:1.46174479"
       d="m 184.4058,202.34907 c 4.36318,8.41354 0.53457,18.50975 -8.54408,22.55189 l -2.74427,1.21419 c -9.07566,4.04214 -19.97982,0.49526 -24.33082,-7.92109 L 135.62725,192.8072 c -4.35407,-8.41349 -0.53003,-18.5069 8.54716,-22.54342 l 2.74574,-1.21981 c 9.07713,-4.03934 19.97675,-0.49245 24.33538,7.92247 z" />
    <path
       inkscape:connector-curvature="0"
       id="path4720-4"
       style="fill:#7a7973;fill-opacity:1;fill-rule:nonzero;stroke:none;stroke-width:1.46174479"
       d="m 182.59203,214.54854 c -0.0729,0 -0.14427,0 -0.21868,-0.003 -2.47088,-0.10687 -4.37379,-2.05555 -4.25992,-4.34466 0.0835,-1.6039 -0.25968,-3.15856 -1.01901,-4.61898 l -2.03049,-3.92656 c -1.07372,-2.06397 -0.13213,-4.54162 2.10031,-5.5349 2.22793,-0.98907 4.90081,-0.12103 5.97301,1.94861 l 2.03049,3.92399 c 1.39263,2.67738 2.04413,5.65446 1.89684,8.59921 -0.11848,2.22859 -2.10035,3.95631 -4.47255,3.95631" />
    <path
       inkscape:connector-curvature="0"
       id="path4732-4"
       style="fill:#4c4b49;fill-opacity:1;fill-rule:nonzero;stroke:none;stroke-width:1.46174479"
       d="m 152.03735,220.87149 c -1.66297,0 -3.26518,-0.86386 -4.03512,-2.3496 l -6.53337,-12.60479 c -1.06765,-2.06679 -0.12736,-4.53878 2.10338,-5.5349 2.22333,-0.99474 4.89927,-0.12247 5.97296,1.94581 l 6.53338,12.60336 c 1.07067,2.06258 0.12445,4.54022 -2.1034,5.5321 -0.62416,0.27997 -1.28327,0.40802 -1.93783,0.40802" />
    <path
       inkscape:connector-curvature="0"
       id="path4768-2"
       style="fill:#6b6b6a;fill-opacity:1;fill-rule:nonzero;stroke:none;stroke-width:1.46174479"
       d="m 40.278579,81.679058 c -2.297771,0 -4.40114,-1.418216 -5.038985,-3.566607 -2.454197,-8.330499 -3.459572,-16.942386 -2.987251,-25.604924 0.144134,-2.670386 2.574173,-4.728742 5.476377,-4.592261 2.885503,0.132293 5.107309,2.405865 4.959996,5.076251 -0.416108,7.639684 0.467774,15.232954 2.636457,22.572966 0.762368,2.576108 -0.88388,5.238038 -3.666129,5.944333 -0.46167,0.115317 -0.923342,0.170242 -1.380465,0.170242" />
    <path
       inkscape:connector-curvature="0"
       id="path4772-7"
       style="fill:#848383;fill-opacity:1;fill-rule:nonzero;stroke:none;stroke-width:1.46174479"
       d="m 73.111118,134.82824 c -1.931761,0 -3.819462,-0.86102 -4.973689,-2.45651 L 46.17577,101.97052 c -1.691812,-2.346751 -3.27579,-4.804672 -4.689697,-7.297805 -1.536906,-2.704135 -0.413062,-6.047032 2.499762,-7.472263 2.921938,-1.426631 6.531849,-0.388314 8.068757,2.321458 1.224072,2.145589 2.584789,4.270066 4.048809,6.290431 l 21.964722,30.406829 c 1.829999,2.53952 1.096467,5.97105 -1.646279,7.67205 -1.019031,0.63315 -2.171715,0.93702 -3.310726,0.93702" />
    <path
       inkscape:connector-curvature="0"
       id="path4776-9"
       style="fill:#777777;fill-opacity:1;fill-rule:nonzero;stroke:none;stroke-width:1.46174479"
       d="m 99.913446,167.76913 c -1.585503,0 -3.163409,-0.57966 -4.337352,-1.7249 -3.257582,-3.18252 -6.273701,-6.68158 -8.94809,-10.38886 l -6.749032,-9.33508 c -1.834558,-2.54235 -1.099516,-5.97528 1.640181,-7.67486 2.738199,-1.69819 6.449855,-1.02004 8.282902,1.51811 l 6.749033,9.33926 c 2.305357,3.19093 4.894702,6.18914 7.690602,8.92141 2.27044,2.22156 2.16868,5.72205 -0.22476,7.82543 -1.15726,1.01439 -2.63037,1.51949 -4.103484,1.51949" />
    <path
       inkscape:connector-curvature="0"
       id="path4780-4"
       style="fill:#777777;fill-opacity:1;fill-rule:nonzero;stroke:none;stroke-width:1.46174479"
       d="m 72.053675,98.04713 c -1.843674,0 -3.638787,-0.908891 -4.584904,-2.512791 -9.154628,-15.47215 -12.586845,-33.686418 -9.681598,-51.291466 0.438882,-2.642245 3.111773,-4.451574 5.960822,-4.053412 2.852078,0.402386 4.808151,2.875798 4.373787,5.515215 -2.565026,15.515752 0.458661,31.559119 8.510713,45.172696 1.386567,2.348185 0.46017,5.292906 -2.073019,6.574623 -0.794257,0.403791 -1.653826,0.595135 -2.505801,0.595135" />
    <path
       inkscape:connector-curvature="0"
       id="path4784-4"
       style="fill:#777777;fill-opacity:1;fill-rule:nonzero;stroke:none;stroke-width:1.46174479"
       d="m 105.22746,144.49958 c -1.68574,0 -3.33808,-0.75414 -4.34343,-2.14558 L 75.550884,107.29018 c -1.602205,-2.22297 -0.958289,-5.2296 1.43971,-6.71532 2.399529,-1.487151 5.643435,-0.892009 7.248668,1.33095 l 25.325548,35.06099 c 1.60982,2.22155 0.96286,5.22539 -1.43364,6.71254 -0.89599,0.55292 -1.90594,0.82024 -2.90371,0.82024" />
    <path
       inkscape:connector-curvature="0"
       id="path4788-1"
       style="fill:#848383;fill-opacity:1;fill-rule:nonzero;stroke:none;stroke-width:1.46174479"
       d="m 170.99871,190.97947 c -0.16089,0 -0.32651,-0.007 -0.489,-0.0196 -17.95084,-1.34081 -35.10132,-8.70615 -48.2987,-20.72707 -2.35241,-2.13996 -2.3843,-5.64183 -0.0714,-7.82541 2.31446,-2.17654 6.08992,-2.20608 8.44689,-0.0619 11.2018,10.20454 25.72497,16.45276 40.88751,17.58959 3.28796,0.24198 5.73302,2.91236 5.46878,5.95979 -0.25058,2.89127 -2.86881,5.0847 -5.94415,5.0847" />
    <path
       inkscape:connector-curvature="0"
       id="path4792-3"
       style="fill:#777777;fill-opacity:1;fill-rule:nonzero;stroke:none;stroke-width:1.46174479"
       d="m 89.082505,79.295276 c -2.338779,0 -4.464934,-1.456195 -5.064825,-3.651027 -2.449625,-8.965037 -3.230229,-18.198784 -2.33116,-27.438176 0.262733,-2.657707 2.809552,-4.617571 5.676831,-4.384019 2.87335,0.246202 4.994945,2.601426 4.733737,5.26337 -0.795793,8.140559 -0.104697,16.281118 2.053238,24.179697 0.706205,2.595799 -0.985622,5.226799 -3.783021,5.882416 -0.431319,0.102688 -0.862611,0.147739 -1.2848,0.147739" />
    <path
       inkscape:connector-curvature="0"
       id="path4796-9"
       style="fill:#6b6b6a;fill-opacity:1;fill-rule:nonzero;stroke:none;stroke-width:1.46174479"
       d="m 104.87302,109.91132 c -1.67969,0 -3.33503,-0.75553 -4.34347,-2.14418 l -4.467947,-6.17929 c -2.202105,-3.055876 -4.200677,-6.279185 -5.930472,-9.582691 -1.255923,-2.407256 -0.173158,-5.302757 2.425358,-6.471925 2.593919,-1.167755 5.719346,-0.157578 6.978343,2.248289 1.518698,2.899692 3.275808,5.733287 5.216678,8.419144 l 4.46037,6.177893 c 1.60525,2.22296 0.96437,5.22958 -1.43818,6.71531 -0.88845,0.55719 -1.89685,0.81745 -2.90068,0.81745" />
    <path
       inkscape:connector-curvature="0"
       id="path4816-9"
       style="fill:#fcfcfc;fill-opacity:1;fill-rule:nonzero;stroke:none;stroke-width:1.46174479"
       d="m 150.38526,99.808337 c -1.68425,0 -3.34413,-0.751304 -4.34646,-2.146979 L 135.40345,82.936284 c -7.06946,-9.776821 -16.6645,-17.426375 -27.75242,-22.098829 -2.62427,-1.111482 -3.78607,-3.977416 -2.59086,-6.415641 1.19673,-2.428391 4.2994,-3.503288 6.92673,-2.398842 12.8526,5.425164 23.95112,14.253738 32.10038,25.530358 l 10.63685,14.72225 c 1.60527,2.224374 0.96132,5.226776 -1.43817,6.713915 -0.893,0.555745 -1.90291,0.818842 -2.9007,0.818842" />
    <path
       inkscape:connector-curvature="0"
       id="path4836-4"
       style="fill:#777777;fill-opacity:1;fill-rule:nonzero;stroke:none;stroke-width:1.46174479"
       d="m 134.89296,197.57998 c -22.40211,0 -44.318199,-9.70932 -59.087388,-26.67985 -2.332704,-2.6746 -1.875582,-6.59293 1.014487,-8.75118 2.883964,-2.15825 7.11654,-1.73336 9.443167,0.93985 14.387994,16.52312 35.884944,24.52721 57.520094,21.40803 3.66762,-0.53604 7.10289,1.79526 7.67238,5.19161 0.568,3.39777 -1.93783,6.57745 -5.60544,7.10505 -3.64334,0.52903 -7.30942,0.78649 -10.9573,0.78649" />
    <path
       inkscape:connector-curvature="0"
       id="path4852-3"
       style="fill:#99611f;fill-opacity:1;fill-rule:nonzero;stroke:none;stroke-width:1.46174479"
       d="m 125.55685,127.81688 c -2.02288,0 -3.94703,-1.09318 -4.79752,-2.92503 -11.54957,-24.83251 -8.35882,-51.938654 -2.11704,-67.604944 0.99929,-2.507169 4.0002,-3.791716 6.7126,-2.861725 2.70476,0.920139 4.0913,3.703071 3.09051,6.217277 -5.57358,13.989241 -8.41655,38.20831 1.912,60.415502 1.14054,2.4537 -0.0835,5.30416 -2.73362,6.36078 -0.67581,0.27575 -1.37137,0.39814 -2.06693,0.39814" />
    <path
       inkscape:connector-curvature="0"
       id="path4856-0"
       style="fill:#d09237;fill-opacity:1;fill-rule:nonzero;stroke:none;stroke-width:1.46174479"
       d="m 198.37724,184.33504 c -7.47345,0 -15.97807,-2.33693 -24.96259,-6.89122 -2.5347,-1.28453 -3.4611,-4.22647 -2.08059,-6.56762 1.38351,-2.35099 4.56212,-3.21203 7.09527,-1.92468 9.21232,4.67384 17.72151,6.56055 23.95417,5.3267 2.82477,-0.55997 5.59785,1.11286 6.19926,3.72836 0.60446,2.61695 -1.19366,5.186 -4.02144,5.73893 -1.96824,0.39255 -4.03059,0.58953 -6.18408,0.58953" />
    <path
       inkscape:connector-curvature="0"
       id="path4872-5"
       style="fill:#fcfcfc;fill-opacity:1;fill-rule:nonzero;stroke:none;stroke-width:1.46174479"
       d="m 203.54502,154.18735 c -2.38132,0 -4.5272,-1.5223 -5.08757,-3.76355 -2.14292,-8.66678 -6.16739,-18.21148 -11.63315,-27.59295 -1.36984,-2.3482 -0.42369,-5.29152 2.11704,-6.55496 2.53775,-1.27611 5.70571,-0.39814 7.08165,1.95423 5.90613,10.13563 10.2693,20.51886 12.62174,30.02978 0.64391,2.60426 -1.11018,5.20289 -3.92427,5.80084 -0.39332,0.0845 -0.78361,0.12659 -1.17544,0.12659" />
    <path
       inkscape:connector-curvature="0"
       id="path4876-3"
       style="fill:#e59e41;fill-opacity:1;fill-rule:nonzero;stroke:none;stroke-width:1.46174479"
       d="m 191.42745,125.37261 c -1.85889,0 -3.66003,-0.91731 -4.60315,-2.54234 -3.00852,-5.15784 -6.4544,-10.28755 -10.24655,-15.24702 -3.82707,-4.99465 -7.44914,-9.917543 -10.79632,-14.502743 -1.6159,-2.215957 -0.98562,-5.223997 1.39872,-6.723786 2.39495,-1.496999 5.6434,-0.918741 7.25928,1.297194 3.31226,4.534568 6.89788,9.411043 10.6642,14.329715 4.03512,5.27743 7.71034,10.74337 10.91936,16.24735 1.36677,2.35666 0.42518,5.29151 -2.11858,6.56339 -0.78973,0.39111 -1.63868,0.57824 -2.47696,0.57824" />
    <path
       inkscape:connector-curvature="0"
       id="path4884-0"
       style="fill:#fcfcfc;fill-opacity:1;fill-rule:nonzero;stroke:none;stroke-width:1.46174479"
       d="m 187.78426,152.72554 c -2.12614,0 -4.1293,-1.217 -4.90535,-3.17828 -4.12321,-10.46484 -10.4349,-21.3799 -18.24848,-31.58584 -4.6259,-6.04001 -8.91921,-11.94212 -13.07889,-17.64447 -7.72859,-10.597076 -14.40472,-19.754857 -20.63585,-26.40126 -1.89381,-2.017553 -1.66146,-5.074835 0.51481,-6.827896 2.18083,-1.753051 5.48092,-1.540593 7.37322,0.481173 6.64727,7.089585 13.48739,16.468263 21.40734,27.33123 4.12172,5.658753 8.39071,11.504583 12.94677,17.455963 8.34212,10.90098 15.10026,22.61236 19.53479,33.86789 0.9917,2.51142 -0.40244,5.29012 -3.11024,6.20885 -0.59224,0.2026 -1.2028,0.29264 -1.79812,0.29264" />
    <path
       inkscape:connector-curvature="0"
       id="path4888-6"
       style="fill:#d09237;fill-opacity:1;fill-rule:nonzero;stroke:none;stroke-width:1.46174479"
       d="m 177.18099,131.93053 c -1.80575,0 -3.55827,-0.86247 -4.5272,-2.41995 -2.44204,-3.89443 -5.14074,-7.78885 -8.02322,-11.54959 -4.6259,-6.04001 -8.91922,-11.94212 -13.07886,-17.64445 -7.7286,-10.597095 -14.40474,-19.754877 -20.63589,-26.399857 -1.8938,-2.018975 -1.66144,-5.076257 0.51484,-6.829308 2.18083,-1.75305 5.48093,-1.540604 7.3732,0.481173 6.64576,7.089597 13.48743,16.468263 21.40736,27.332677 4.1217,5.657315 8.39072,11.503145 12.94675,17.454515 3.06623,4.00557 5.93957,8.149 8.53652,12.30509 1.44884,2.31585 0.59381,5.27463 -1.89985,6.61545 -0.82466,0.4446 -1.72524,0.65425 -2.61365,0.65425" />
    <path
       inkscape:connector-curvature="0"
       id="path4892-0"
       style="fill:#cecece;fill-opacity:1;fill-rule:nonzero;stroke:none;stroke-width:1.46174479"
       d="m 159.21402,107.00808 c -1.67356,0 -3.32285,-0.74708 -4.32972,-2.12447 -1.12538,-1.53779 -2.23398,-3.05449 -3.31985,-4.55147 -7.73617,-10.608312 -14.41231,-19.768929 -20.64801,-26.416721 -1.89378,-2.017553 -1.66296,-5.074858 0.51329,-6.827909 2.18237,-1.753038 5.48096,-1.540592 7.37474,0.481185 6.64878,7.0938 13.49198,16.473867 21.41797,27.343928 1.08889,1.49274 2.1945,3.00804 3.31076,4.540205 1.6189,2.214502 0.99776,5.222562 -1.39418,6.718122 -0.8945,0.56983 -1.91353,0.83713 -2.925,0.83713" />
    <path
       inkscape:connector-curvature="0"
       id="path4896-0"
       style="fill:#fcfcfc;fill-opacity:1;fill-rule:nonzero;stroke:none;stroke-width:1.46174479"
       d="m 169.54232,150.35541 c -1.91658,0 -3.75725,-0.97502 -4.67302,-2.65913 -3.44134,-6.327 -7.54021,-12.61183 -12.18288,-18.67292 -4.62588,-6.03861 -8.9207,-11.93649 -13.07886,-17.63882 -5.26071,-7.2162 -10.23745,-14.038485 -14.8512,-19.719729 -1.73434,-2.134338 -1.27269,-5.174732 1.02964,-6.778631 2.3069,-1.612362 5.58119,-1.177607 7.32006,0.952507 4.77929,5.87819 9.82587,12.80316 15.16103,20.129133 4.12472,5.65449 8.39377,11.50174 12.94675,17.45451 4.93877,6.45505 9.31258,13.15631 12.98475,19.91526 1.29694,2.38334 0.26271,5.29995 -2.31297,6.50286 -0.75479,0.3447 -1.55969,0.51496 -2.3433,0.51496" />
    <path
       inkscape:connector-curvature="0"
       id="path4904-6"
       style="fill:#cecece;fill-opacity:1;fill-rule:nonzero;stroke:none;stroke-width:1.46174479"
       d="m 140.54488,108.86568 c -1.66904,0 -3.31377,-0.74288 -4.33129,-2.12589 -3.73596,-5.1044 -7.70882,-10.462012 -11.45693,-15.075409 -1.73586,-2.13993 -1.27266,-5.173296 1.02965,-6.778631 2.30536,-1.608124 5.58119,-1.177606 7.3231,0.952508 3.88024,4.78218 7.94576,10.265042 11.75459,15.465102 1.625,2.21311 1.00233,5.22538 -1.38656,6.72519 -0.9036,0.56699 -1.91961,0.83713 -2.93256,0.83713" />
    <path
       inkscape:connector-curvature="0"
       id="path4908-3"
       style="fill:#cecece;fill-opacity:1;fill-rule:nonzero;stroke:none;stroke-width:1.46174479"
       d="m 211.79808,170.77025 c -0.12617,0 -0.24907,0 -0.37967,-0.007 -2.87788,-0.19417 -5.0405,-2.51 -4.83551,-5.1818 0.86871,-11.05573 -3.36992,-26.02981 -11.62397,-41.08693 -1.30608,-2.38334 -0.28095,-5.29853 2.29016,-6.51133 2.5772,-1.20855 5.72091,-0.25746 7.02543,2.12449 9.22295,16.82704 13.74863,33.22352 12.73722,46.17726 -0.20201,2.54656 -2.49521,4.48533 -5.21366,4.48533" />
    <path
       inkscape:connector-curvature="0"
       id="path4912-4"
       style="fill:#e0e0e0;fill-opacity:1;fill-rule:nonzero;stroke:none;stroke-width:1.46174479"
       d="m 91.063928,234.1001 c -1.224049,0 -2.467872,-0.27711 -3.61902,-0.87086 -3.599288,-1.85858 -4.894716,-6.06815 -2.899166,-9.40542 10.923868,-18.20303 21.127918,-33.78208 30.317488,-46.31371 2.32051,-3.1614 6.96616,-3.97462 10.37107,-1.83185 3.41245,2.14701 4.29329,6.45082 1.97579,9.60942 -8.94048,12.18834 -18.90151,27.41848 -29.612789,45.25992 -1.36226,2.27643 -3.910617,3.5525 -6.533373,3.5525" />
    <path
       inkscape:connector-curvature="0"
       id="path5108-4"
       style="fill:#d09237;fill-opacity:1;fill-rule:nonzero;stroke:none;stroke-width:1.46174479"
       d="m 135.5958,63.79415 c -1.584,0 -3.14976,-0.664076 -4.17636,-1.933145 -2.10947,-2.59017 -4.00325,-4.773752 -5.78467,-6.680148 -1.89684,-2.014738 -1.66448,-5.070622 0.51937,-6.829295 2.17477,-1.753058 5.47638,-1.533561 7.36716,0.47977 1.94996,2.080853 3.99109,4.436078 6.24477,7.21057 1.73894,2.135742 1.27267,5.169098 -1.02963,6.780047 -0.94158,0.654227 -2.04415,0.972201 -3.14064,0.972201" />
    <path
       inkscape:connector-curvature="0"
       id="path5112-4"
       style="fill:#d09237;fill-opacity:1;fill-rule:nonzero;stroke:none;stroke-width:1.46174479"
       d="m 152.72183,60.99954 c -1.58399,0 -3.1543,-0.66689 -4.1779,-1.930331 -2.13982,-2.633788 -12.16769,-14.42114 -13.97645,-16.348657 -1.88768,-2.01615 -1.65837,-5.076246 0.51939,-6.83493 2.17932,-1.747416 5.47943,-1.533561 7.36864,0.483994 2.05179,2.186387 12.38035,14.342364 14.43659,16.874861 1.73893,2.138556 1.27574,5.174728 -1.03265,6.780049 -0.94311,0.652833 -2.04266,0.975014 -3.13762,0.975014" />
    <path
       inkscape:connector-curvature="0"
       id="path5116-7"
       style="fill:#99611f;fill-opacity:1;fill-rule:nonzero;stroke:none;stroke-width:1.46174479"
       d="m 78.640794,258.65014 c -0.710737,0 -1.435164,-0.11947 -2.138293,-0.37004 -3.078386,-1.09458 -4.615279,-4.29258 -3.432223,-7.15006 0.903595,-2.18078 1.92719,-4.36292 3.054046,-6.48037 l 6.51364,-12.31496 c 1.451876,-2.74354 5.028356,-3.88315 7.988283,-2.53673 2.965986,1.3394 4.183966,4.66403 2.732104,7.40333 l -6.510605,12.31779 c -0.964352,1.82477 -1.854291,3.70304 -2.63035,5.58417 -0.908161,2.19619 -3.172514,3.54687 -5.576602,3.54687" />
    <path
       inkscape:connector-curvature="0"
       id="path5120-8"
       style="fill:#99611f;fill-opacity:1;fill-rule:nonzero;stroke:none;stroke-width:1.46174479"
       d="m 98.012943,255.72637 c -2.797399,0 -5.294123,-1.83889 -5.851474,-4.4783 -0.485973,-2.30035 -0.864123,-4.65699 -1.12382,-6.99954 l -1.535395,-13.6389 c -0.344739,-3.0404 2.038092,-5.75862 5.324525,-6.078 3.283371,-0.31232 6.214421,1.89094 6.557641,4.93137 l 1.53234,13.6417 c 0.22632,2.02176 0.5513,4.04073 0.96743,6.02592 0.63329,2.99958 -1.48073,5.89931 -4.718563,6.4874 -0.38724,0.0677 -0.768451,0.10834 -1.152684,0.10834" />
    <path
       inkscape:connector-curvature="0"
       id="path5124-3"
       style="fill:#140e04;fill-opacity:1;fill-rule:nonzero;stroke:none;stroke-width:1.46174479"
       d="m 79.354897,258.1252 c 0,0 -0.118478,0.13645 -0.329579,0.39252 -0.206541,0.20683 -0.443445,0.59517 -0.744146,1.06648 -0.277921,0.47134 -0.577112,1.04961 -0.848949,1.67427 -0.253628,0.63452 -0.563421,1.31266 -0.79122,2.01331 -0.259685,0.69081 -0.49965,1.3929 -0.659104,2.06398 -0.17015,0.66691 -0.378163,1.30287 -0.449542,1.84592 -0.198948,1.09741 -0.31133,1.83465 -0.31133,1.83465 l -0.0052,0.0351 c -0.05473,0.34192 -0.397904,0.58251 -0.765432,0.53185 -0.308273,-0.038 -0.534561,-0.27153 -0.578619,-0.54591 0,0 -0.101688,-0.75833 -0.250585,-1.91345 -0.09722,-0.57824 -0.142861,-1.25216 -0.208044,-1.97814 -0.08039,-0.73868 -0.10475,-1.52372 -0.142862,-2.3074 -0.09275,-1.58842 0.0032,-3.17406 0.0095,-4.40794 0.0048,-0.31094 0.0048,-0.59795 0.0048,-0.8498 0.0063,-0.26873 0.01447,-0.5079 0.01447,-0.70625 0.01826,-0.41509 0,-0.58812 0,-0.58812 -0.20353,-1.76854 1.192149,-3.35981 3.105674,-3.54551 1.913556,-0.18572 3.625117,1.10726 3.822527,2.88284 0.09728,0.86104 -0.180725,1.67568 -0.713772,2.31582 z" />
    <path
       inkscape:connector-curvature="0"
       id="path5128-5"
       style="fill:#140e04;fill-opacity:1;fill-rule:nonzero;stroke:none;stroke-width:1.46174479"
       d="m 96.061908,252.79837 c 0,0 0.04864,0.12802 0.118479,0.35881 0.08044,0.19695 0.135176,0.53038 0.205018,0.93561 0.06375,0.39815 0.09886,0.87791 0.103101,1.3788 -0.0079,0.51214 0.0106,1.06224 -0.02875,1.61237 -0.01975,0.54447 -0.06242,1.10019 -0.145751,1.60812 -0.07289,0.50928 -0.115431,1.00455 -0.2278,1.40132 -0.17618,0.81884 -0.312854,1.36329 -0.312854,1.36329 l -0.0054,0.0268 c -0.06242,0.24904 0.104697,0.50229 0.376625,0.55997 0.226288,0.0521 0.457122,-0.0521 0.558862,-0.23214 0,0 0.300716,-0.50369 0.741126,-1.27753 0.233894,-0.37844 0.464728,-0.83991 0.725937,-1.33234 0.267279,-0.49385 0.513314,-1.03414 0.773011,-1.57719 0.528488,-1.08477 0.921851,-2.21875 1.278718,-3.08402 0.0897,-0.21951 0.17015,-0.42211 0.23998,-0.59796 0.082,-0.18992 0.14414,-0.36017 0.19741,-0.49805 0.11689,-0.29406 0.17158,-0.40661 0.17158,-0.40661 0.66518,-1.19308 0.15343,-2.65067 -1.129904,-3.2613 -1.2848,-0.61059 -2.86121,-0.13801 -3.520315,1.0566 -0.315902,0.58109 -0.356879,1.22126 -0.170136,1.79951 z" />
    <path
       inkscape:connector-curvature="0"
       id="path5132-4"
       style="fill:#99611f;fill-opacity:1;fill-rule:nonzero;stroke:none;stroke-width:1.46174479"
       d="m 88.518157,233.1932 c -1.583978,0 -3.163409,-0.57824 -4.338876,-1.72911 -8.475767,-8.32206 -16.230166,-2.42978 -17.088211,-1.7249 -2.475449,2.01756 -6.246353,1.79804 -8.43022,-0.48963 -2.183863,-2.29192 -1.943901,-5.78534 0.526986,-7.80996 6.840153,-5.58836 21.455956,-9.55734 33.673754,2.42418 2.262842,2.22157 2.15653,5.72625 -0.243,7.8226 -1.15116,1.0074 -2.627327,1.50682 -4.100433,1.50682" />
    <path
       inkscape:connector-curvature="0"
       id="path5136-1"
       style="fill:#140e04;fill-opacity:1;fill-rule:nonzero;stroke:none;stroke-width:1.46174479"
       d="m 63.469611,230.35736 c 0,0 -0.119791,0.13501 -0.335629,0.38832 -0.205017,0.20962 -0.44346,0.60078 -0.739592,1.06505 -0.279428,0.47276 -0.574071,1.05242 -0.844386,1.68272 -0.259695,0.6275 -0.564955,1.30845 -0.797314,2.00629 -0.256652,0.69362 -0.499646,1.39709 -0.65607,2.06677 -0.17619,0.67114 -0.378134,1.30146 -0.449531,1.84171 -0.198949,1.09882 -0.314375,1.83888 -0.314375,1.83888 l -0.0015,0.0322 c -0.05606,0.34611 -0.397911,0.58388 -0.765427,0.53466 -0.305261,-0.041 -0.539123,-0.26874 -0.57407,-0.54733 0,0 -0.109387,-0.75975 -0.264244,-1.90779 -0.09113,-0.58249 -0.132128,-1.255 -0.205002,-1.98376 -0.07736,-0.73586 -0.10187,-1.51813 -0.139824,-2.30882 -0.08952,-1.58421 0.0032,-3.16844 0.01114,-4.40653 0.0048,-0.31095 0.01114,-0.59654 0.01114,-0.84701 0.0032,-0.27292 0.01113,-0.51073 0.01113,-0.70486 0.01602,-0.41786 0,-0.58951 0,-0.58951 -0.205033,-1.77557 1.192169,-3.35978 3.102662,-3.5427 1.91355,-0.18851 3.628136,1.10024 3.827052,2.87582 0.09578,0.85961 -0.183747,1.68128 -0.718324,2.32145 z" />
    <path
       inkscape:connector-curvature="0"
       id="path5140-1"
       style="fill:#140e04;fill-opacity:1;fill-rule:nonzero;stroke:none;stroke-width:1.46174479"
       d="m 52.36578,234.89829 c 0,0 -0.116914,0.14491 -0.329573,0.39396 -0.206541,0.2082 -0.443445,0.60075 -0.744141,1.07208 -0.277924,0.46989 -0.571029,1.04536 -0.839838,1.67143 -0.259695,0.63735 -0.571027,1.30989 -0.797314,2.01195 -0.258173,0.69082 -0.501166,1.39568 -0.660619,2.0682 -0.171561,0.66829 -0.375122,1.30281 -0.444967,1.84452 -0.197443,1.09598 -0.312853,1.83039 -0.312853,1.83039 l -0.0048,0.0395 c -0.05172,0.33766 -0.391827,0.57827 -0.76541,0.52903 -0.305246,-0.0396 -0.53762,-0.27153 -0.575592,-0.54452 0,0 -0.104751,-0.75832 -0.256637,-1.91203 -0.09417,-0.57823 -0.138217,-1.25077 -0.205035,-1.98374 -0.08201,-0.73165 -0.106335,-1.51531 -0.145742,-2.30462 -0.08952,-1.58279 0.0063,-3.16985 0.01285,-4.40371 0.0095,-0.31374 0.01286,-0.59936 0.01286,-0.85539 0.0032,-0.26455 0.01447,-0.50233 0.01447,-0.7021 0.01114,-0.41507 0,-0.5881 0,-0.5881 -0.209566,-1.77416 1.189126,-3.36117 3.099633,-3.54408 1.913534,-0.18573 3.625096,1.10585 3.822521,2.87581 0.09722,0.86102 -0.179198,1.68832 -0.716818,2.31718 z" />
  </g>
</svg>
